<?xml version="1.0" standalone="no"?>
<!DOCTYPE svg PUBLIC "-//W3C//DTD SVG 20010904//EN"
 "http://www.w3.org/TR/2001/REC-SVG-20010904/DTD/svg10.dtd">
<svg version="1.0" xmlns="http://www.w3.org/2000/svg"
 width="822.000000pt" height="822.000000pt" viewBox="0 0 822.000000 822.000000"
 preserveAspectRatio="xMidYMid meet">
<metadata>
Created by potrace 1.14, written by Peter Selinger 2001-2017
</metadata>
<g transform="translate(0.000000,822.000000) scale(0.100000,-0.100000)"
fill="#000000" stroke="none">
<path d="M4107 7144 c-1 -1 -47 -5 -102 -8 -55 -4 -113 -9 -130 -11 -16 -3
-52 -7 -80 -9 -46 -5 -94 -11 -155 -22 -14 -2 -45 -7 -69 -10 -24 -3 -112 -22
-195 -40 -83 -19 -159 -37 -169 -39 -119 -27 -469 -149 -602 -210 -31 -14 -58
-25 -61 -25 -8 0 -277 -135 -319 -159 -136 -79 -256 -154 -318 -198 -98 -68
-112 -78 -117 -84 -3 -3 -23 -19 -45 -35 -189 -137 -478 -441 -635 -669 -19
-27 -37 -52 -40 -55 -11 -10 -78 -116 -95 -150 -10 -19 -21 -37 -24 -40 -11
-8 -101 -195 -101 -208 0 -7 -4 -12 -10 -12 -5 0 -10 -7 -10 -16 0 -21 -29
-49 -39 -38 -8 8 -31 71 -37 99 -1 6 -9 29 -18 53 -8 23 -15 43 -15 45 1 1 -9
35 -21 75 l-22 72 -270 0 -270 0 5 -32 c4 -30 22 -97 63 -235 9 -29 17 -58 18
-65 1 -7 10 -38 20 -68 10 -30 22 -68 26 -85 5 -16 26 -91 48 -165 22 -74 59
-198 82 -275 22 -77 45 -153 51 -170 18 -57 150 -500 154 -519 2 -10 20 -68
39 -130 19 -61 49 -158 66 -216 17 -58 44 -148 60 -200 15 -52 40 -135 55
-185 14 -49 39 -133 55 -185 16 -52 38 -127 50 -167 22 -74 31 -83 91 -83 44
0 109 -53 184 -148 126 -161 366 -401 513 -512 18 -14 48 -37 65 -52 18 -15
35 -28 39 -28 4 0 14 -7 23 -16 21 -21 123 -90 251 -170 140 -86 352 -195 549
-280 143 -61 529 -186 655 -210 14 -3 63 -14 110 -24 104 -23 178 -36 255 -46
11 -1 20 -3 20 -4 0 -1 14 -3 30 -4 17 -2 59 -7 95 -10 36 -4 72 -9 80 -11 37
-10 245 -19 470 -19 281 0 392 6 599 34 36 5 68 7 73 4 4 -3 8 -2 8 3 0 4 10
8 23 9 26 1 80 9 157 23 95 18 114 22 132 27 10 3 30 7 45 10 49 8 285 72 373
100 47 15 90 29 95 30 13 3 240 91 285 111 191 83 428 211 580 311 47 32 89
59 94 61 5 2 16 10 25 17 9 7 59 46 111 86 97 74 115 89 203 168 73 65 204
197 267 269 30 35 60 68 66 75 5 6 37 47 69 91 33 44 62 82 65 85 14 13 70
102 70 109 0 5 3 11 8 13 22 9 187 325 231 443 13 33 26 67 30 75 4 8 22 62
40 120 18 58 35 112 38 120 3 8 7 20 8 25 2 6 8 37 16 70 7 33 13 62 14 65 1
4 6 38 21 135 2 11 6 104 8 208 3 103 8 192 11 197 3 6 3 10 -2 10 -4 0 -8 26
-9 58 -1 83 -11 199 -24 262 -6 30 -14 66 -16 80 -59 293 -247 716 -442 990
-107 151 -362 425 -552 596 -94 84 -450 334 -476 334 -4 0 -15 6 -23 14 -9 8
-45 29 -81 46 -36 18 -73 40 -84 49 -10 9 -21 16 -25 15 -12 -1 -136 59 -143
70 -4 6 -8 8 -8 3 0 -4 -13 -1 -30 8 -73 38 -412 165 -480 180 -8 2 -16 4 -17
5 -3 3 -7 4 -48 14 -16 4 -37 10 -45 13 -8 3 -24 8 -35 10 -11 2 -31 7 -45 12
-23 8 -129 33 -190 45 -14 3 -36 7 -50 11 -35 7 -241 42 -300 50 -14 2 -50 6
-80 9 -30 3 -77 8 -105 12 -107 12 -199 16 -448 18 -141 1 -258 2 -260 0z
m338 -248 c74 -5 122 -11 220 -26 33 -5 80 -12 105 -15 267 -36 689 -159 950
-277 176 -79 529 -276 538 -299 2 -5 8 -9 13 -9 15 0 158 -105 319 -235 56
-44 318 -314 360 -370 25 -33 53 -69 63 -79 9 -11 17 -23 17 -27 0 -4 6 -14
13 -21 11 -12 31 -39 67 -94 64 -96 173 -303 222 -419 37 -90 98 -279 113
-353 2 -9 8 -38 14 -65 6 -26 14 -64 17 -85 2 -20 7 -50 10 -67 23 -143 23
-507 -1 -630 -4 -16 -15 -70 -26 -120 -12 -49 -22 -97 -24 -105 -1 -8 -8 -33
-14 -55 -6 -22 -11 -43 -11 -47 -2 -14 -68 -193 -94 -255 -90 -214 -231 -432
-422 -653 -101 -118 -281 -294 -366 -361 -24 -19 -48 -38 -54 -44 -6 -5 -32
-26 -57 -45 -26 -19 -60 -45 -75 -57 -15 -13 -33 -23 -39 -23 -7 0 -13 -4 -13
-9 0 -22 -406 -251 -585 -329 -121 -53 -471 -171 -554 -187 -9 -1 -34 -8 -56
-13 -22 -6 -51 -13 -65 -16 -14 -3 -36 -7 -50 -10 -105 -23 -280 -51 -385 -61
-33 -4 -73 -9 -90 -11 -224 -31 -857 -19 -1075 21 -26 5 -44 8 -120 20 -25 4
-70 13 -100 20 -30 8 -67 16 -82 19 -66 14 -79 17 -103 26 -14 5 -25 7 -25 4
0 -3 -6 -2 -12 3 -7 4 -22 9 -32 10 -42 7 -237 66 -341 104 -138 51 -442 199
-600 292 -66 39 -122 74 -125 77 -3 3 -41 29 -85 59 -44 30 -82 57 -85 60 -3
3 -23 20 -45 36 -72 54 -207 178 -324 299 -64 65 -131 134 -149 152 -31 33
-32 34 -10 35 98 4 253 18 271 24 32 13 30 26 -58 325 -21 69 -38 130 -39 135
-2 6 -11 37 -21 70 -11 33 -19 62 -20 65 -2 10 -36 126 -55 190 -11 36 -20 67
-19 70 0 3 -5 18 -11 34 -6 16 -27 83 -46 150 -20 66 -44 148 -54 181 -10 33
-37 122 -59 198 -39 131 -103 345 -141 472 -38 126 -72 241 -76 255 -2 8 -17
60 -34 114 -26 87 -28 102 -17 125 76 149 224 401 247 421 3 3 16 21 27 40 12
19 31 45 43 58 11 12 17 22 13 22 -4 0 -3 4 3 8 6 4 39 41 73 82 101 121 240
260 346 345 28 22 52 42 55 45 24 25 300 216 415 287 101 62 375 205 375 196
0 -3 10 1 23 9 12 8 42 22 67 32 25 10 56 23 70 29 14 5 30 11 35 12 6 2 40
14 78 28 37 15 67 24 67 21 0 -3 6 -2 13 3 6 4 17 8 22 10 6 1 35 9 65 18 112
33 435 108 515 120 23 3 50 7 62 9 12 3 43 8 70 12 26 3 57 8 68 10 11 2 67 6
124 9 58 3 106 7 108 8 4 5 572 -2 648 -7z"/>
<path d="M4948 5462 l-37 -3 -3 -87 c-2 -48 -5 -671 -6 -1384 l-4 -1298 261 0
261 0 1 378 c1 207 0 382 -1 387 -1 6 -2 15 -2 20 0 7 1 392 1 635 -1 216 0
630 0 645 0 11 1 55 0 98 l0 77 410 0 409 0 4 -39 c2 -21 0 -53 -3 -70 -4 -17
-3 -34 2 -36 4 -3 6 -12 3 -20 -8 -21 -10 -175 -3 -175 4 0 4 -15 0 -32 -4
-18 -4 -46 -1 -63 3 -16 4 -42 2 -57 l-4 -28 -338 0 -338 0 -4 -60 c-1 -33 0
-74 3 -90 4 -17 3 -32 -1 -35 -4 -2 -4 -24 -1 -47 4 -24 4 -59 1 -78 -3 -19
-3 -52 1 -72 3 -21 3 -39 0 -40 -4 -2 -5 -24 -3 -50 l4 -48 52 -1 c45 -1 173
-5 231 -8 16 -1 27 -20 53 -89 18 -48 37 -96 42 -107 4 -11 18 -47 30 -80 12
-33 26 -69 31 -80 21 -47 162 -422 166 -443 3 -12 9 -25 14 -28 5 -3 9 -12 9
-20 0 -8 8 -33 19 -57 10 -23 29 -69 41 -102 59 -161 67 -175 92 -176 13 0
132 -2 266 -4 196 -2 245 0 256 11 12 12 4 40 -50 186 -36 95 -69 182 -74 193
-5 11 -46 117 -90 235 -45 118 -85 224 -90 235 -38 87 -130 350 -126 361 3 8
16 18 28 23 38 15 143 98 181 144 58 71 105 166 117 237 10 65 8 653 -3 696
-3 12 -8 38 -11 59 -11 65 -57 137 -145 225 -88 88 -145 123 -216 134 -22 4
-53 9 -69 12 -17 3 -68 7 -115 10 -98 6 -1197 11 -1253 6z"/>
<path d="M1920 5378 c-12 -40 -25 -84 -30 -98 -6 -14 -33 -101 -61 -195 -28
-93 -57 -190 -64 -215 -8 -25 -20 -65 -28 -90 -8 -25 -15 -49 -16 -55 -1 -5
-9 -32 -17 -60 -9 -27 -30 -102 -49 -165 -18 -63 -52 -178 -75 -255 -22 -77
-50 -171 -61 -210 -11 -38 -29 -98 -40 -132 -10 -34 -21 -70 -22 -80 -2 -10
-7 -25 -10 -33 -3 -8 -10 -33 -15 -55 -6 -22 -20 -74 -32 -115 -11 -41 -18
-86 -15 -100 3 -14 8 -36 11 -50 3 -14 14 -56 26 -95 11 -38 26 -92 33 -120 7
-27 23 -81 34 -120 12 -38 31 -101 42 -140 11 -38 27 -88 36 -110 8 -22 14
-42 14 -45 -1 -6 26 -92 41 -132 23 -61 28 -50 124 260 2 7 3 13 3 15 0 1 12
36 26 77 14 41 25 75 24 75 -1 0 6 25 16 55 9 30 26 84 37 120 11 36 23 79 28
95 5 17 22 75 39 130 16 55 78 258 136 450 58 193 108 359 110 369 3 11 13 47
24 80 11 34 47 156 81 271 34 116 77 262 97 325 19 63 36 124 39 136 2 11 13
49 24 83 21 66 40 134 46 164 2 11 -5 21 -19 26 -12 5 -133 9 -269 10 l-247 2
-21 -73z"/>
<path d="M3177 5444 c-1 -1 -34 -4 -74 -7 -89 -7 -139 -32 -209 -101 -55 -56
-88 -110 -99 -166 -11 -52 -15 -986 -5 -1049 10 -60 47 -142 83 -183 12 -14
56 -49 97 -77 l74 -51 498 0 498 0 0 -37 c0 -21 0 -46 0 -55 1 -56 1 -195 -1
-220 0 -7 0 -38 1 -68 1 -30 1 -59 0 -65 -8 -34 -3 -35 260 -35 292 0 263 -9
262 80 -4 280 -12 575 -17 618 -7 71 -36 124 -101 189 -69 69 -121 92 -226 99
-88 6 -430 12 -735 13 l-183 1 0 300 0 300 589 0 589 0 4 30 c3 17 1 30 -3 30
-4 0 -4 13 1 29 4 15 4 34 0 42 -5 7 -5 20 0 29 5 9 5 22 0 30 -5 8 -5 21 0
30 5 9 5 22 0 30 -5 8 -5 21 0 30 5 9 5 22 0 30 -5 8 -5 21 0 31 5 9 7 19 4
22 -8 7 -11 87 -4 87 4 0 4 16 2 36 l-4 35 -649 -2 c-357 -2 -650 -4 -652 -5z"/>
<path d="M2740 2949 l0 -261 753 5 c413 2 766 7 782 11 49 12 114 44 148 72
95 80 131 182 141 404 l1 25 -912 3 -913 2 0 -261z"/>
</g>
</svg>
