<?xml version="1.0" encoding="UTF-8" standalone="no"?>
<svg
   width="869"
   height="547"
   viewBox="0 0 869 547"
   version="1.1"
   id="svg830"
   sodipodi:docname="trace.svg"
   inkscape:version="1.1.1 (c3084ef, 2021-09-22)"
   xmlns:inkscape="http://www.inkscape.org/namespaces/inkscape"
   xmlns:sodipodi="http://sodipodi.sourceforge.net/DTD/sodipodi-0.dtd"
   xmlns="http://www.w3.org/2000/svg"
   xmlns:svg="http://www.w3.org/2000/svg">
  <defs
     id="defs834" />
  <sodipodi:namedview
     id="namedview832"
     pagecolor="#505050"
     bordercolor="#ffffff"
     borderopacity="1"
     inkscape:pageshadow="0"
     inkscape:pageopacity="0"
     inkscape:pagecheckerboard="1"
     showgrid="false"
     inkscape:zoom="3.5905541"
     inkscape:cx="207.62812"
     inkscape:cy="194.81673"
     inkscape:window-width="1312"
     inkscape:window-height="1011"
     inkscape:window-x="0"
     inkscape:window-y="25"
     inkscape:window-maximized="0"
     inkscape:current-layer="svg830" />
  <path
     d="M 367 288.500 L 367 405 374 405 L 381 405 381 288.500 L 381 172 374 172 L 367 172 367 288.500"
     stroke="none"
     fill="#003366"
     fill-rule="evenodd"
     id="path824" />
  <path
     d="m 448.006,14.78 c -4.122,0.857 -7.035,1.71 -6.473,1.898 0.561,0.187 5.058,-0.519 9.994,-1.569 4.935,-1.05 7.848,-1.904 6.473,-1.897 -1.375,0.006 -5.872,0.712 -9.994,1.568 M 606,15.101 c 5.225,1.035 9.95,1.731 10.5,1.548 1.15,-0.383 -16.233,-3.71 -18.5,-3.541 -0.825,0.061 2.775,0.958 8,1.993 M 406,25.5 c -1.925,0.741 -2.825,1.348 -2,1.348 0.825,0 3.075,-0.607 5,-1.348 1.925,-0.741 2.825,-1.348 2,-1.348 -0.825,0 -3.075,0.607 -5,1.348 m 242,0 c 1.925,0.741 4.175,1.348 5,1.348 0.825,0 -0.075,-0.607 -2,-1.348 -1.925,-0.741 -4.175,-1.348 -5,-1.348 -0.825,0 0.075,0.607 2,1.348 m -167.224,2.233 c 2.352,0.212 5.952,0.209 8,-0.006 2.048,-0.215 0.124,-0.388 -4.276,-0.384 -4.4,0.003 -6.076,0.179 -3.724,0.39 m 34,0 c 2.352,0.212 5.952,0.209 8,-0.006 2.048,-0.215 0.124,-0.388 -4.276,-0.384 -4.4,0.003 -6.076,0.179 -3.724,0.39 M 447,30.27 c -10.187,1.591 -5.648,1.85 5.5,0.314 5.663,-0.78 8.048,-1.367 5.5,-1.354 -2.475,0.014 -7.425,0.482 -11,1.04 m 107.5,0.74 c 7.15,1.088 13.45,1.83 14,1.647 1.262,-0.419 -13.033,-2.583 -21,-3.178 -3.3,-0.247 -0.15,0.442 7,1.531 m -175.25,4.02 c -2.337,1.038 -4.25,2.115 -4.25,2.393 0,0.502 9.057,-3.147 9.896,-3.986 0.922,-0.922 -1.567,-0.22 -5.646,1.593 M 677,35.415 c 1.375,0.735 3.625,1.616 5,1.958 1.375,0.342 0.7,-0.243 -1.5,-1.301 -4.525,-2.176 -7.33,-2.702 -3.5,-0.657 M 397,41 c -7.394,2.425 -5.149,2.479 3,0.073 3.575,-1.056 5.6,-1.91 4.5,-1.899 -1.1,0.012 -4.475,0.834 -7.5,1.826 m -42,4.547 c -2.475,1.284 -4.158,2.362 -3.739,2.394 0.963,0.075 9.739,-4.027 9.739,-4.551 0,-0.721 -1.474,-0.191 -6,2.157 m 15,4.432 c -4.191,1.352 -9.575,3.94 -8.284,3.982 0.669,0.021 2.694,-0.59 4.5,-1.36 1.806,-0.769 4.409,-1.864 5.784,-2.432 2.949,-1.219 1.59,-1.349 -2,-0.19 m 264.565,1.434 c 5.046,2.198 8.25,2.734 3.935,0.659 -2.2,-1.058 -4.675,-1.939 -5.5,-1.959 -0.825,-0.019 -0.121,0.566 1.565,1.3 M 659,61.498 c 0,0.474 7.973,4.502 8.91,4.502 0.88,0 -3.206,-2.503 -6.16,-3.774 C 660.237,61.575 659,61.248 659,61.498 M 302.846,76.465 c -2.56,1.878 -4.955,3.903 -5.324,4.5 -0.369,0.596 1.838,-0.791 4.904,-3.084 4.842,-3.621 6.302,-4.953 5.324,-4.856 -0.137,0.013 -2.344,1.561 -4.904,3.44 m 446.615,-2.528 c 0.325,0.526 2.634,2.335 5.131,4.02 2.496,1.685 4.273,2.633 3.947,2.106 -0.325,-0.526 -2.634,-2.335 -5.131,-4.02 -2.496,-1.685 -4.273,-2.633 -3.947,-2.106 M 704.5,87.715 c 2.549,2.494 12.5,9.62 12.5,8.95 0,-0.277 -3.263,-2.845 -7.25,-5.706 -3.987,-2.861 -6.35,-4.321 -5.25,-3.244 m -414.25,5.384 c -4.261,3.018 -5.781,4.834 -2.5,2.986 2.133,-1.202 7.947,-6.016 7.25,-6.004 -0.275,0.004 -2.413,1.363 -4.75,3.018 m 443.708,18.151 c 2.452,2.612 4.59,4.75 4.75,4.75 0.751,0 -0.043,-0.898 -4.458,-5.042 l -4.75,-4.458 4.458,4.75 m -472.385,7 c -7.442,7.542 -7.738,7.939 -1.6,2.151 4.14,-3.905 8.624,-8.067 9.966,-9.25 1.341,-1.183 2.061,-2.151 1.6,-2.151 -0.461,0 -4.946,4.162 -9.966,9.25 m -5.634,0.5 c -7.179,7.764 -9.296,10.25 -8.729,10.25 0.321,0 3.377,-3.15 6.79,-7 6.496,-7.327 7.928,-9.727 1.939,-3.25 m 544.651,0.405 c 2.151,2.56 4.113,4.457 4.361,4.216 0.248,-0.242 -1.511,-2.337 -3.91,-4.655 l -4.361,-4.216 3.91,4.655 m -50.635,8.345 c 2.412,2.75 4.595,5.225 4.851,5.5 0.256,0.275 -0.009,-0.4 -0.588,-1.5 -0.58,-1.1 -2.763,-3.575 -4.851,-5.5 -3.609,-3.327 -3.58,-3.252 0.588,1.5 m -507.056,6.75 c -5.042,6.554 -5.177,6.75 -4.642,6.75 0.277,0 2.371,-2.475 4.655,-5.5 2.284,-3.025 3.951,-5.5 3.704,-5.5 -0.246,0 -1.919,1.912 -3.717,4.25 M 248,132.038 c -6.814,8.29 -8.119,9.962 -7.775,9.962 0.676,0 10.011,-11.099 9.633,-11.452 -0.197,-0.185 -1.033,0.486 -1.858,1.49 m 565.859,3.257 c 1.742,2.531 3.696,4.93 4.342,5.329 0.646,0.4 -0.363,-1.415 -2.242,-4.031 -4.447,-6.193 -6.223,-7.29 -2.1,-1.298 M 823.513,149 c 0.93,1.555 1.146,1.842 4.51,6 1.96,2.422 1.959,2.386 -0.052,-1.171 -1.141,-2.019 -2.813,-4.269 -3.715,-5 -1.399,-1.133 -1.508,-1.108 -0.743,0.171 m -50.929,7.359 c 0.347,0.902 0.977,1.641 1.402,1.641 0.424,0 1.337,1.364 2.027,3.032 0.691,1.668 1.454,2.835 1.695,2.593 0.648,-0.647 -2.324,-6.061 -4.165,-7.589 -1.355,-1.124 -1.496,-1.077 -0.959,0.323 m 62.282,10.662 c 1.717,4.3 5.134,10.451 5.134,9.243 0,-1.115 -4.47,-10.068 -5.582,-11.18 -0.299,-0.298 -0.097,0.574 0.448,1.937 M 414.5,171.573 c -7.829,4.071 -11.752,11.259 -11.9,21.802 -0.175,12.497 5.097,21.12 14.455,23.64 4.892,1.317 13.168,-0.108 16.818,-2.896 2.308,-1.763 2.325,-1.887 0.641,-4.457 l -1.732,-2.643 -2.978,2.121 c -3.97,2.826 -9.892,2.93 -13.505,0.237 -4.828,-3.598 -6.805,-8.11 -6.746,-15.391 0.11,-13.332 8.625,-20.91 19.045,-16.949 2.958,1.125 3.823,0.638 4.838,-2.727 0.569,-1.886 0.134,-2.336 -3.138,-3.244 -5.465,-1.518 -12.329,-1.298 -15.798,0.507 m 172.927,-0.808 c -3.503,2.399 -1.545,7.669 2.629,7.08 3.106,-0.438 3.968,-4.623 1.348,-6.539 -2.045,-1.495 -2.494,-1.556 -3.977,-0.541 m 17.823,4.455 c -1.669,0.805 -2.25,1.95 -2.25,4.433 0,2.308 -0.465,3.347 -1.5,3.347 -0.933,0 -1.5,0.944 -1.5,2.5 0,1.469 0.574,2.5 1.392,2.5 1.086,0 1.471,2.483 1.751,11.295 0.496,15.629 3.052,18.907 13.935,17.869 3.589,-0.342 3.922,-0.624 3.922,-3.314 0,-2.825 -0.139,-2.915 -3.54,-2.277 -2.662,0.5 -4.026,0.225 -5.5,-1.109 C 610.254,208.92 610,207.35 610,198.345 V 188 h 4.5 c 4.133,0 4.5,-0.204 4.5,-2.5 0,-2.296 -0.367,-2.5 -4.5,-2.5 H 610 v -4.5 c 0,-4.767 -0.685,-5.24 -4.75,-3.28 m 149,-0.189 c -1.738,0.699 -2.25,1.708 -2.25,4.437 0,2.865 -0.377,3.532 -2,3.532 -1.441,0 -2,0.667 -2,2.383 0,1.543 0.706,2.568 2,2.907 1.853,0.484 2,1.364 2,11.98 0,10.979 0.108,11.565 2.577,14.034 2.812,2.812 4.955,3.382 10.673,2.841 3.356,-0.318 3.75,-0.649 3.75,-3.155 0,-2.673 -0.175,-2.776 -3.864,-2.281 -5.872,0.787 -7.136,-1.68 -7.136,-13.932 V 188 h 4.5 c 4.133,0 4.5,-0.204 4.5,-2.5 0,-2.296 -0.367,-2.5 -4.5,-2.5 H 758 v -4.5 c 0,-4.745 -0.174,-4.906 -3.75,-3.469 m 30.612,0.719 c 0.439,0.963 1.617,3.662 2.619,6 1.003,2.338 2.165,4.25 2.585,4.25 0.419,0 -0.546,-2.7 -2.144,-6 -1.599,-3.3 -3.121,-6 -3.382,-6 -0.262,0 -0.117,0.787 0.322,1.75 m -333.653,7.213 c -11.76,2.864 -15.241,22.534 -5.502,31.085 3.285,2.884 5.603,3.423 12.793,2.978 8.822,-0.546 14.28,-11.436 11.513,-22.97 -1.266,-5.28 -6.367,-11.042 -9.798,-11.07 -0.943,-0.007 -2.615,-0.196 -3.715,-0.419 -1.1,-0.223 -3.481,-0.045 -5.291,0.396 m 37.291,-0.241 c -1.1,0.266 -2.824,1.216 -3.832,2.11 -1.695,1.505 -1.904,1.497 -2.8,-0.103 -0.532,-0.951 -1.845,-1.729 -2.918,-1.729 -1.857,0 -1.95,0.811 -1.95,17 v 17 h 3 3 v -12.326 c 0,-11.591 0.138,-12.455 2.314,-14.5 2.825,-2.653 6.804,-2.806 9.031,-0.345 1.357,1.499 1.655,4.112 1.655,14.5 V 217 h 3 3 v -11.865 c 0,-10.49 0.24,-12.171 2.073,-14.5 2.541,-3.23 6.841,-3.493 9.478,-0.578 1.549,1.711 1.932,4.147 2.276,14.5 L 516.241,217 h 2.88 2.879 v -12.532 c 0,-13.703 -1.181,-18.424 -5.139,-20.543 -3.134,-1.677 -10.418,-1.446 -13.268,0.422 -1.934,1.267 -2.648,1.306 -4.211,0.231 -2.238,-1.539 -8.077,-2.535 -10.882,-1.856 m 53,0 c -1.1,0.266 -2.824,1.216 -3.832,2.11 -1.695,1.505 -1.904,1.497 -2.8,-0.103 -0.532,-0.951 -1.845,-1.729 -2.918,-1.729 -1.857,0 -1.95,0.811 -1.95,17 v 17 h 3 3 v -12.326 c 0,-11.591 0.138,-12.455 2.314,-14.5 2.825,-2.653 6.804,-2.806 9.031,-0.345 1.357,1.499 1.655,4.112 1.655,14.5 V 217 h 3 3 v -11.865 c 0,-10.49 0.24,-12.171 2.073,-14.5 2.541,-3.23 6.841,-3.493 9.478,-0.578 1.549,1.711 1.932,4.147 2.276,14.5 L 569.241,217 h 2.88 2.879 v -12.532 c 0,-13.703 -1.181,-18.424 -5.139,-20.543 -3.134,-1.677 -10.418,-1.446 -13.268,0.422 -1.934,1.267 -2.648,1.306 -4.211,0.231 -2.238,-1.539 -8.077,-2.535 -10.882,-1.856 m 97,-0.012 c -1.1,0.273 -2.824,1.228 -3.832,2.122 -1.695,1.505 -1.904,1.497 -2.8,-0.103 -0.532,-0.951 -1.845,-1.729 -2.918,-1.729 -1.857,0 -1.95,0.811 -1.95,17 v 17 h 3 3 v -12.943 c 0,-12.242 0.12,-13.028 2.223,-14.5 1.222,-0.856 3.147,-1.557 4.277,-1.557 1.13,0 3.055,0.701 4.277,1.557 2.103,1.472 2.223,2.258 2.223,14.5 V 217 h 3 3 v -12.5 c 0,-11.167 0.213,-12.713 2,-14.5 2.718,-2.718 7.462,-2.606 9.443,0.223 1.204,1.718 1.557,5.006 1.557,14.5 V 217 h 3.613 3.614 l -0.407,-13.75 c -0.429,-14.475 -1.148,-17.017 -5.462,-19.326 -3.205,-1.715 -9.868,-1.475 -12.825,0.463 -2.223,1.456 -2.808,1.485 -4.783,0.234 -2.691,-1.704 -7.485,-2.598 -10.25,-1.911 m 50.184,0.74 c -7.603,2.709 -10.684,7.718 -10.684,17.37 0,6.395 2.145,10.752 7.098,14.42 3.279,2.428 13.379,2.599 17.823,0.301 2.745,-1.42 2.92,-1.795 1.892,-4.053 -1.308,-2.869 -1.466,-2.901 -4.813,-0.988 -3.355,1.918 -8.039,1.862 -10.883,-0.131 -1.917,-1.342 -5.117,-6.85 -5.117,-8.806 0,-0.276 5.513,-0.628 12.25,-0.782 l 12.25,-0.281 -0.055,-4.628 c -0.031,-2.59 -0.806,-5.774 -1.76,-7.229 -3.309,-5.051 -11.648,-7.456 -18.001,-5.193 m 38.002,-0.444 c -1.548,0.47 -3.504,1.428 -4.347,2.127 -1.264,1.049 -1.7,0.974 -2.485,-0.43 -0.525,-0.937 -1.831,-1.703 -2.904,-1.703 -1.857,0 -1.95,0.811 -1.95,17 v 17 h 3 3 v -12.974 -12.975 l 2.95,-1.525 c 3.983,-2.06 6.656,-1.92 9.05,0.474 1.787,1.787 2,3.333 2,14.5 V 217 h 3 3 v -13.453 c 0,-13.604 -0.736,-17.277 -3.854,-19.224 -2.665,-1.664 -7.368,-2.256 -10.46,-1.317 M 581,185.43 c 0,1.76 0.621,2.519 2.25,2.75 2.198,0.313 2.256,0.65 2.527,14.57 l 0.278,14.25 h 2.972 2.973 v -17 -17 h -5.5 c -5.158,0 -5.5,0.151 -5.5,2.43 m 264.001,1.653 c 0.003,1.359 6.908,19.14 6.949,17.894 0.028,-0.837 -1.329,-5.104 -3.014,-9.481 -2.737,-7.107 -3.938,-9.674 -3.935,-8.413 m -394.218,2.667 c -2.808,3.22 -3.783,6.082 -3.783,11.108 0,6.903 3.624,11.385 8.851,10.944 2.808,-0.237 4.098,-1.06 5.955,-3.802 3.195,-4.717 2.789,-13.673 -0.793,-17.486 -2.817,-2.999 -7.946,-3.382 -10.23,-0.764 m 236.853,0.886 c -4.544,4.545 -3.648,5.364 5.864,5.364 9.499,0 10.59,-1.001 6.045,-5.545 -3.388,-3.388 -8.416,-3.312 -11.909,0.181 m 107.978,7.864 c 3.507,10.967 5.139,15.586 5.703,16.151 1.07,1.069 -2.314,-9.757 -4.423,-14.151 -1.056,-2.2 -1.632,-3.1 -1.28,-2 m -608.394,16.243 34.72,0.283 0.327,12.488 0.326,12.489 -0.046,-12.751 -0.047,-12.752 -35,-0.02 -35,-0.02 34.72,0.283 M 244.473,283 c 0,38.225 0.125,53.862 0.277,34.75 0.152,-19.113 0.152,-50.388 0,-69.5 -0.152,-19.113 -0.277,-3.475 -0.277,34.75 M 858.11,228 c -0.034,0.825 0.368,3.3 0.895,5.5 0.526,2.2 1.674,10.746 2.55,18.991 1.646,15.481 3.108,21.788 1.973,8.509 -1.304,-15.257 -5.176,-38.841 -5.418,-33 m -719.673,27 c 0,14.575 0.14,20.538 0.31,13.25 0.171,-7.288 0.171,-19.213 0,-26.5 -0.17,-7.287 -0.31,-1.325 -0.31,13.25 m 669.07,-14.085 c 2.713,18.203 2.944,44.243 0.527,59.585 -0.519,3.3 -1.182,7.8 -1.472,10 l -0.527,4 0.996,-3.5 c 1.713,-6.018 3.905,-26.077 3.934,-36 0.033,-11.18 -1.641,-30.426 -3.008,-34.582 -0.941,-2.862 -0.949,-2.852 -0.45,0.497 m -517.287,-1.177 20.721,0.302 0.326,12.482 0.326,12.481 -0.046,-12.751 -0.047,-12.752 -21,-0.032 -21,-0.032 20.72,0.302 m 264.376,17.568 c -1.098,0.803 -1.653,2.248 -1.441,3.75 0.278,1.972 0.924,2.444 3.345,2.444 2.371,0 3.068,-0.483 3.327,-2.305 0.31,-2.191 -1.285,-5.195 -2.758,-5.195 -0.378,0 -1.49,0.588 -2.473,1.306 M 407,280 v 23 h 3 3 v -23 -23 h -3 -3 v 23 m 55.25,-18.969 c -1.738,0.699 -2.25,1.708 -2.25,4.437 0,2.865 -0.377,3.532 -2,3.532 -1.467,0 -2,0.667 -2,2.5 0,1.833 0.533,2.5 2,2.5 1.884,0 2,0.667 2,11.484 0,11.181 0.074,11.568 2.816,14.636 2.589,2.898 3.287,3.141 8.666,3.017 3.217,-0.074 6.022,-0.307 6.232,-0.518 0.211,-0.211 0.107,-1.485 -0.231,-2.832 -0.533,-2.124 -1.165,-2.439 -4.749,-2.368 -5.603,0.11 -6.7,-2.204 -6.719,-14.169 L 466,274 h 4.5 c 4.133,0 4.5,-0.204 4.5,-2.5 0,-2.296 -0.367,-2.5 -4.5,-2.5 H 466 v -4.5 c 0,-4.745 -0.174,-4.906 -3.75,-3.469 m 111,0 c -1.738,0.699 -2.25,1.708 -2.25,4.437 0,2.865 -0.377,3.532 -2,3.532 -1.441,0 -2,0.667 -2,2.383 0,1.543 0.706,2.568 2,2.907 1.853,0.484 2,1.364 2,11.98 0,10.979 0.108,11.565 2.577,14.034 2.812,2.812 4.955,3.382 10.673,2.841 3.356,-0.318 3.75,-0.649 3.75,-3.155 0,-2.673 -0.175,-2.776 -3.864,-2.281 -5.872,0.787 -7.136,-1.68 -7.136,-13.932 V 274 h 4.5 c 4.133,0 4.5,-0.204 4.5,-2.5 0,-2.296 -0.367,-2.5 -4.5,-2.5 H 577 v -4.5 c 0,-4.745 -0.174,-4.906 -3.75,-3.469 m -296.033,18.219 0.218,13.25 0.312,-12.725 0.312,-12.726 16.221,-0.301 16.22,-0.301 -16.75,-0.224 L 277,266 l 0.217,13.25 m 260.747,-10.794 c -1.095,1.089 -2.388,1.246 -5.134,0.623 -7.062,-1.601 -12.573,0.752 -15.321,6.543 -2.15,4.53 -1.189,10.788 2.171,14.149 l 2.45,2.45 -2.065,1.446 c -2.751,1.927 -2.778,6.881 -0.045,8.344 1.111,0.594 5.213,0.948 9.115,0.785 5.967,-0.249 7.275,-0.008 8.23,1.517 0.932,1.488 0.713,2.159 -1.226,3.75 -2.868,2.353 -8.504,2.517 -12.628,0.366 -2.828,-1.474 -3.083,-1.441 -4.75,0.617 -2.534,3.13 -2.284,3.588 2.917,5.36 7.941,2.706 16.108,1.58 20.21,-2.786 3.261,-3.472 2.662,-10.139 -1.167,-12.987 -2.311,-1.719 -4.04,-2.03 -10.25,-1.844 -4.109,0.122 -7.471,-0.194 -7.471,-0.704 0,-0.897 1.365,-1.276 9.211,-2.556 4.412,-0.719 9.271,-5.189 10.089,-9.28 0.316,-1.579 0.177,-4.635 -0.309,-6.791 -0.674,-2.988 -0.539,-4.3 0.57,-5.526 1.281,-1.415 1.235,-1.807 -0.382,-3.27 -2.236,-2.023 -2.38,-2.03 -4.215,-0.206 m -103.278,0.55 c -1.548,0.47 -3.504,1.428 -4.347,2.127 -1.264,1.049 -1.7,0.974 -2.485,-0.43 -0.525,-0.937 -1.831,-1.703 -2.904,-1.703 -1.857,0 -1.95,0.811 -1.95,17 v 17 h 3 3 v -12.427 c 0,-12.235 0.041,-12.46 2.635,-14.5 3.503,-2.756 7.82,-2.69 9.808,0.15 1.204,1.718 1.557,5.006 1.557,14.5 V 303 h 3.5 3.5 l -0.006,-11.75 c -0.006,-13.317 -1.114,-18.649 -4.294,-20.661 -3.054,-1.933 -7.675,-2.597 -11.014,-1.583 m 58.814,-0.073 c -7.028,1.694 -11.339,7.107 -12.184,15.299 -1.337,12.948 7.499,21.039 20.353,18.638 6.062,-1.133 7.954,-2.838 6.39,-5.759 -1.067,-1.994 -1.313,-2.031 -4.048,-0.617 -5.594,2.893 -12.538,1.034 -14.816,-3.966 C 486.735,287.128 486.986,287 500,287 h 12 v -4.596 c 0,-7.683 -4.234,-12.507 -12,-13.67 -1.925,-0.288 -4.85,-0.199 -6.5,0.199 M 549,271.5 c 0,1.833 0.533,2.5 2,2.5 1.908,0 2,0.667 2,14.5 V 303 h 3 3 v -17 -17 h -5 c -4.667,0 -5,0.167 -5,2.5 m 41.449,-0.75 c 0.364,0.962 3.112,8.124 6.107,15.915 7.087,18.44 7.057,21.284 -0.242,23.22 -2.07,0.55 -2.898,1.457 -3.13,3.431 -0.255,2.16 0.093,2.684 1.782,2.684 2.986,0 8.253,-2.395 10.144,-4.612 1.275,-1.496 15.89,-40.043 15.89,-41.911 0,-0.262 -1.483,-0.477 -3.297,-0.477 h -3.296 l -3.907,12 c -2.149,6.6 -4.166,12 -4.484,12 -0.317,0 -2.575,-5.4 -5.016,-12 l -4.439,-12 h -3.388 c -2.811,0 -3.274,0.297 -2.724,1.75 M 175.75,270.747 c 6.738,0.173 17.762,0.173 24.5,0 6.738,-0.173 1.225,-0.315 -12.25,-0.315 -13.475,0 -18.988,0.142 -12.25,0.315 m 315.173,6.176 c -1.608,1.608 -2.923,3.408 -2.923,4 0,0.69 3.238,1.077 9,1.077 4.95,0 9,-0.255 9,-0.566 0,-1.212 -2.406,-4.995 -3.913,-6.152 -2.95,-2.265 -8.001,-1.522 -11.164,1.641 M 525,276 c -3.815,3.815 -1.696,10.897 3.733,12.475 3.108,0.903 7.267,-3.35 7.267,-7.43 0,-3.702 -3.085,-7.045 -6.5,-7.045 -1.375,0 -3.4,0.9 -4.5,2 m 338,6.589 c 0,3.546 -2.989,27.851 -4.088,33.24 -0.598,2.931 -0.886,5.53 -0.641,5.775 0.245,0.245 1.176,-3.278 2.069,-7.829 1.866,-9.513 4.066,-31.702 3.226,-32.543 -0.312,-0.311 -0.566,0.3 -0.566,1.357 M 226,301.97 v 16.97 l -12.75,0.313 -12.75,0.312 13.25,0.218 L 227,320 v -17.5 c 0,-9.625 -0.225,-17.5 -0.5,-17.5 -0.275,0 -0.5,7.637 -0.5,16.97 m -89.783,37.28 0.218,13.25 0.312,-12.75 0.313,-12.75 h 44.418 44.417 l 0.368,5.25 0.367,5.25 0.185,-5.75 L 227,326 H 181.5 136 l 0.217,13.25 m 664.329,-6 c -0.215,0.688 -1.528,4.525 -2.917,8.527 -1.389,4.003 -2.111,7.021 -1.604,6.707 0.508,-0.313 1.646,-2.913 2.53,-5.777 0.884,-2.864 1.989,-6.445 2.456,-7.957 0.467,-1.512 0.642,-2.75 0.388,-2.75 -0.254,0 -0.638,0.563 -0.853,1.25 m 50.764,11.5 c -0.344,0.962 -1.455,3.904 -2.468,6.537 -2.025,5.263 -2.351,7.192 -0.751,4.444 1.415,-2.431 4.913,-12.731 4.324,-12.731 -0.263,0 -0.76,0.788 -1.105,1.75 m -445.06,4.956 -2.25,0.433 V 373.07 396 h 2.964 2.964 l 0.286,-9.75 0.286,-9.75 3,-0.271 c 2.803,-0.253 3.397,0.372 9.029,9.5 5.792,9.388 6.179,9.783 9.883,10.089 4.635,0.383 4.702,0.654 -2.789,-11.265 -3.093,-4.921 -5.623,-9.236 -5.623,-9.59 0,-0.353 1.103,-1.145 2.452,-1.759 6.119,-2.788 7.488,-15.278 2.175,-19.849 -4.353,-3.744 -13.847,-5.292 -22.377,-3.649 m 199,4.325 c -1.738,0.699 -2.25,1.708 -2.25,4.437 0,2.865 -0.377,3.532 -2,3.532 -1.467,0 -2,0.667 -2,2.5 0,1.833 0.533,2.5 2,2.5 1.884,0 2,0.667 2,11.484 0,11.181 0.074,11.568 2.816,14.636 2.589,2.898 3.287,3.141 8.666,3.017 3.217,-0.074 6.022,-0.307 6.232,-0.518 0.211,-0.211 0.107,-1.485 -0.231,-2.832 -0.533,-2.124 -1.165,-2.439 -4.749,-2.368 -5.603,0.11 -6.7,-2.204 -6.719,-14.169 L 609,367 h 4.5 c 4.133,0 4.5,-0.204 4.5,-2.5 0,-2.296 -0.367,-2.5 -4.5,-2.5 H 609 v -4.5 c 0,-4.745 -0.174,-4.906 -3.75,-3.469 m -193.5,1.759 c -1.464,0.298 -1.75,1.489 -1.75,7.283 V 370 h 5.461 c 4.33,0 5.883,-0.453 7.5,-2.189 2.338,-2.509 2.649,-6.594 0.705,-9.253 -1.324,-1.811 -8.472,-3.471 -11.916,-2.768 m 34.934,6.66 c -7.603,2.709 -10.684,7.718 -10.684,17.37 0,6.395 2.145,10.752 7.098,14.42 3.279,2.428 13.379,2.599 17.823,0.301 2.745,-1.42 2.92,-1.795 1.892,-4.053 -1.308,-2.869 -1.466,-2.901 -4.813,-0.988 -3.355,1.918 -8.039,1.862 -10.883,-0.131 -1.917,-1.342 -5.117,-6.85 -5.117,-8.806 0,-0.276 5.512,-0.628 12.25,-0.782 l 12.25,-0.281 -0.055,-4.628 c -0.031,-2.59 -0.806,-5.774 -1.76,-7.229 -3.309,-5.051 -11.648,-7.456 -18.001,-5.193 m 31.525,-0.455 c -4.876,1.14 -7.209,3.708 -7.209,7.937 0,4.771 2.109,7.583 7.882,10.508 5.81,2.945 7.482,4.837 6.634,7.51 -0.917,2.89 -5.037,3.649 -9.155,1.685 -4.326,-2.063 -3.987,-2.147 -5.181,1.278 -0.932,2.673 -0.78,3.01 1.842,4.096 4.431,1.835 12.923,1.423 15.861,-0.771 3.072,-2.294 4.253,-6.278 3.076,-10.38 -1.024,-3.57 -2.838,-5.216 -8.639,-7.838 -4.888,-2.209 -7.093,-5.384 -5.267,-7.584 1.441,-1.736 4.944,-1.85 8.404,-0.274 2.954,1.346 3.155,1.231 4.046,-2.316 0.6,-2.393 0.341,-2.715 -2.669,-3.323 -1.834,-0.37 -4.009,-0.813 -4.834,-0.984 -0.825,-0.172 -2.981,0.033 -4.791,0.456 m 30.041,0.497 c -1.788,0.776 -3.25,0.983 -3.25,0.46 0,-0.524 -1.35,-0.952 -3,-0.952 h -3 v 23.5 23.5 h 3 3 v -7.067 c 0,-6.803 0.081,-7.042 2.176,-6.377 4.007,1.272 11.172,0.575 13.731,-1.336 4.63,-3.457 6.282,-6.708 6.822,-13.427 0.636,-7.926 -1.949,-14.838 -6.391,-17.088 -4.551,-2.305 -9.513,-2.765 -13.088,-1.213 m 36.25,-0.559 c -7.028,1.694 -11.339,7.107 -12.184,15.299 -1.337,12.948 7.499,21.039 20.353,18.638 6.062,-1.133 7.954,-2.838 6.39,-5.759 -1.067,-1.994 -1.313,-2.031 -4.048,-0.617 -5.594,2.893 -12.538,1.034 -14.816,-3.966 C 537.735,380.128 537.986,380 551,380 h 12 v -4.596 c 0,-7.683 -4.234,-12.507 -12,-13.67 -1.925,-0.288 -4.85,-0.199 -6.5,0.199 m 35.336,0.001 c -8.697,1.716 -13.382,8.846 -12.631,19.222 0.697,9.637 6.444,15.07 15.865,14.997 4.516,-0.035 11.93,-1.703 11.93,-2.683 0,-0.207 -0.53,-1.539 -1.178,-2.962 -0.813,-1.784 -1.665,-2.38 -2.75,-1.924 -5.552,2.337 -7.008,2.649 -9.481,2.028 -1.519,-0.381 -3.848,-1.865 -5.176,-3.298 -4.266,-4.604 -2.708,-16.481 2.53,-19.284 2.498,-1.338 7.649,-1.318 10.185,0.039 2.243,1.201 4.87,-0.264 4.87,-2.716 0,-2.577 -8.289,-4.578 -14.164,-3.419 M 786.5,367.25 c -1.44,2.984 -1.771,4.203 -0.767,2.824 1.922,-2.639 4.437,-8.074 3.736,-8.074 -0.24,0 -1.576,2.363 -2.969,5.25 m -340.864,2.386 c -4.544,4.545 -3.648,5.364 5.864,5.364 9.499,0 10.59,-1.001 6.045,-5.545 -3.388,-3.388 -8.416,-3.312 -11.909,0.181 m 61.114,-1.244 c -1.453,1.103 -1.75,2.959 -1.75,10.933 0,8.472 0.228,9.727 1.934,10.64 2.666,1.426 5.662,1.296 8.921,-0.39 3.563,-1.843 5.145,-5.439 5.145,-11.699 0,-4.226 -0.467,-5.497 -2.923,-7.953 -3.221,-3.22 -8.212,-3.895 -11.327,-1.531 m 35.173,1.531 c -1.608,1.608 -2.923,3.408 -2.923,4 0,0.69 3.238,1.077 9,1.077 4.95,0 9,-0.255 9,-0.566 0,-1.212 -2.406,-4.995 -3.913,-6.152 -2.95,-2.265 -8.001,-1.522 -11.164,1.641 m 297.395,3.327 c -1.281,1.728 -3.377,6.75 -2.817,6.75 0.252,0 1.377,-1.8 2.499,-4 2.002,-3.924 2.152,-5.223 0.318,-2.75 m -619.83,5.187 c 3.075,5.948 3.89,6.925 2.491,2.989 -0.571,-1.609 -1.94,-4.051 -3.041,-5.426 -1.531,-1.912 -1.402,-1.339 0.55,2.437 m 4.051,2.313 c 2.032,3.438 3.91,6.25 4.173,6.25 0.686,0 -4.688,-9.212 -6.417,-11 -0.798,-0.825 0.212,1.313 2.244,4.75 m 553.798,2.5 c -3.721,5.269 -4.592,6.75 -3.967,6.75 0.417,0 4.479,-5.674 6.981,-9.75 1.821,-2.967 -0.268,-0.887 -3.014,3 m -548.308,11.921 c 1.141,2.019 2.813,4.269 3.715,5 1.399,1.133 1.508,1.108 0.743,-0.171 -0.93,-1.555 -1.146,-1.842 -4.51,-6 -1.96,-2.422 -1.959,-2.386 0.052,1.171 m 598.754,-1.421 c -1.702,1.952 -4.076,6.25 -3.451,6.25 0.221,0 1.593,-1.8 3.049,-4 2.789,-4.214 2.963,-5.185 0.402,-2.25 m -62.504,6.572 c -1.208,1.748 -3.162,4.528 -4.342,6.178 -1.748,2.445 -1.563,2.353 1.002,-0.5 3.975,-4.422 6.448,-7.947 5.935,-8.46 -0.219,-0.218 -1.386,1.033 -2.595,2.782 M 814.5,413 c -2.539,3.3 -4.392,6 -4.117,6 0.275,0 2.578,-2.7 5.117,-6 2.539,-3.3 4.392,-6 4.117,-6 -0.275,0 -2.578,2.7 -5.117,6 m -573.459,-0.593 c 4.447,6.193 6.223,7.29 2.1,1.298 -1.742,-2.531 -3.696,-4.93 -4.342,-5.329 -0.646,-0.4 0.363,1.415 2.242,4.031 m 512.005,2.928 -3.454,4.165 4.204,-3.953 c 2.312,-2.174 4.204,-4.087 4.204,-4.25 0,-1.149 -2.014,0.492 -4.954,4.038 M 255.515,422 c 1.709,2.35 7.485,7.585 7.485,6.784 0,-0.202 -2.093,-2.374 -4.651,-4.826 -2.559,-2.452 -3.834,-3.333 -2.834,-1.958 m 547.338,5.25 c -3.494,3.988 -5.554,6.623 -4.578,5.856 2.18,-1.711 12.115,-13.106 11.427,-13.106 -0.273,0 -3.355,3.262 -6.849,7.25 M 252,425.597 c 0,0.548 1.912,2.776 4.249,4.95 l 4.248,3.953 -3.496,-4 c -1.922,-2.2 -3.834,-4.428 -4.248,-4.95 -0.469,-0.592 -0.753,-0.574 -0.753,0.047 m 34.243,23.986 c 0.326,0.528 2.733,2.497 5.35,4.376 2.616,1.879 4.491,2.985 4.164,2.458 -0.326,-0.528 -2.733,-2.497 -5.35,-4.376 -2.616,-1.879 -4.491,-2.985 -4.164,-2.458 M 692.5,466.034 c -3.3,2.159 -5.671,3.935 -5.269,3.946 0.936,0.026 11.769,-6.887 11.769,-7.511 0,-0.689 0.01,-0.695 -6.5,3.565 m 62.325,4.797 c -6.455,5.066 -7.2,6.084 -1.767,2.415 3.832,-2.588 8.094,-6.443 6.814,-6.165 -0.204,0.044 -2.476,1.732 -5.047,3.75 m -456.364,-1.894 c 0.325,0.526 2.634,2.335 5.131,4.02 2.496,1.685 4.273,2.633 3.947,2.106 -0.325,-0.526 -2.634,-2.335 -5.131,-4.02 -2.496,-1.685 -4.273,-2.633 -3.947,-2.106 M 343,484.591 c 0,0.668 9.195,4.547 9.665,4.077 0.21,-0.21 -1.878,-1.321 -4.641,-2.469 C 345.261,485.05 343,484.327 343,484.591 m 284.22,12.657 c -2.905,1.113 -5.101,2.204 -4.882,2.424 0.22,0.219 3.271,-0.711 6.781,-2.067 3.509,-1.356 5.706,-2.447 4.881,-2.424 -0.825,0.024 -3.876,0.954 -6.78,2.067 m 72.992,5.931 c -2.358,1.143 -4.124,2.243 -3.923,2.443 0.201,0.201 2.58,-0.733 5.288,-2.076 2.708,-1.342 4.473,-2.442 3.923,-2.443 -0.55,-0.002 -2.93,0.932 -5.288,2.076 M 398,505.302 c 0.659,0.634 12.828,3.717 14.331,3.631 0.643,-0.037 -0.719,-0.657 -3.027,-1.379 -4.888,-1.527 -12.031,-2.951 -11.304,-2.252 m 194.241,2.439 c -3.443,0.866 -6.067,1.767 -5.831,2.002 0.473,0.474 14.59,-2.795 14.59,-3.378 0,-0.616 -2.233,-0.265 -8.759,1.376 m -215.345,5.351 c 2.417,1.072 4.574,1.772 4.791,1.554 0.433,-0.432 -7.273,-3.69 -8.457,-3.575 -0.402,0.038 1.248,0.948 3.666,2.021 m 299.604,0.386 c -2.75,1.296 -4.7,2.393 -4.333,2.439 1.048,0.131 9.833,-3.784 9.833,-4.381 0,-0.687 0.321,-0.8 -5.5,1.942 M 457,516.989 c 20.719,3.354 60.249,3.594 84,0.511 11.221,-1.457 10.221,-1.428 -20.329,0.585 -19.399,1.279 -26.435,1.103 -63.671,-1.588 l -5.5,-0.398 5.5,0.89 m -51,6.511 c 1.925,0.741 4.175,1.348 5,1.348 0.825,0 -0.075,-0.607 -2,-1.348 -1.925,-0.741 -4.175,-1.348 -5,-1.348 -0.825,0 0.075,0.607 2,1.348 m 242,0 c -1.925,0.741 -2.825,1.348 -2,1.348 0.825,0 3.075,-0.607 5,-1.348 1.925,-0.741 2.825,-1.348 2,-1.348 -0.825,0 -3.075,0.607 -5,1.348 m -203.088,10.039 c 2.977,0.725 7.702,1.553 10.5,1.84 3.143,0.323 1.648,-0.2 -3.912,-1.368 -10.198,-2.143 -14.804,-2.473 -6.588,-0.472 m 159.588,0.536 c -4.685,1.088 -6.135,1.648 -3.5,1.353 5.395,-0.604 16.343,-3.206 13.5,-3.209 -1.1,-0.001 -5.6,0.834 -10,1.856"
     stroke="none"
     fill="#e52144"
     fill-rule="evenodd"
     id="path826"
     sodipodi:nodetypes="ccccccccccsssccsssccscccscccccccccccssccsscccccccscccccccscccssccccccccccccssccccccsccccccsccsccccccccsccccsssccsccccccccccccscccccscccccsccccccccccccccssssccscsscssscsccssscsscscscssscscccscscccsccsccccsscccsccscccsccccccscccccccsscccsccscccsccccccscccccccsscccscscscccsscscccccccccscccccsccccccccssccccccsscccsscccccccccsccccccssccccsccccscccccccccccssccccsccccccccccccccccccccccccscscccccccccccssssscccscccssscsccssscsscscscssscsccccccccccccccccccccccccscsccccsccccsscccsccsccccccccccccscscccsscccccscccccscssccsccsccssccsssscccsscccscccccccccsscccccccccccccccccsssccscscccccccccccscsccccssssscccscccssscsccscscsccscccccsccccccscccccsccsccccccsscccccssccccccccccscsccccssccccccscccsccscccsccscccssssccsccccsccscccsccccscccsscccccccssscccccccssccsccccsccccccccccccccsccsccccccccsccccccccccccccccccscccccccsccccccccsssccsssccccccssc" />
  <path
     d="m 505.911,8.077 c -16.576,0.951 -34.118,3.178 -50.836,6.452 -6.916,1.355 -13.567,2.465 -14.779,2.467 -1.213,0.002 -9.313,2.083 -18,4.623 -8.688,2.541 -17.555,5.034 -19.706,5.541 -3.852,0.908 -8.525,2.675 -19.845,7.502 -3.166,1.35 -6.605,2.619 -7.644,2.819 -5.601,1.078 -40.622,18.904 -52.422,26.682 -3.201,2.11 -5.994,3.837 -6.205,3.837 -1.483,0 -30.545,21.993 -36.886,27.914 -19.683,18.377 -33.135,33.661 -46.725,53.086 -4.836,6.912 -24.97292,44.1798 -24.18292,44.1798 0.26,0 16.33592,-29.6708 19.04492,-33.9368 11.752,-18.511 33.316,-42.388 52.275,-57.882 43.1,-35.224 98.542,-59.398 160,-69.764 35.998,-6.071 87.594,-6.091 123.5,-0.046 10.622,1.788 39.245,8.449 48.5,11.287 26.948,8.262 58.139,22.369 79.26,35.848 3.718,2.373 6.986,4.314 7.261,4.314 0.822,0 19.474,13.924 26.479,19.765 15.443,12.88 36.775,35.745 45,48.235 0.825,1.253 2.43,3.453 3.567,4.889 2.362,2.983 9.222,14.612 14.14,23.969 20.802,39.58 28.264,89.002 19.651,130.142 -2.862,13.668 -9.01,34.743 -11.26,38.596 -0.612,1.047 -2.815,5.729 -4.895,10.404 -5.797,13.025 -9.047,18.584 -21.571,36.893 -12.516,18.297 -34.604,40.436 -57.132,57.264 -9.723,7.263 -23.913,16.843 -24.948,16.843 -0.282,0 -2.884,1.486 -5.783,3.303 -12.889,8.08 -40.4,20.319 -61.142,27.2 -85.368,28.322 -179.228,25.152 -261.627,-8.838 -14.164,-5.843 -31.858,-14.661 -40.769,-20.319 -2.899,-1.84 -5.536,-3.346 -5.862,-3.346 -0.981,0 -19.283,-12.86 -28.318,-19.896 -8.613,-6.708 -23.569,-20.442 -29.99,-27.54 -1.959,-2.165 -4.686,-5.12 -6.061,-6.568 -1.375,-1.447 -3.625,-4.14 -5,-5.983 -1.375,-1.844 -3.966,-5.189 -5.757,-7.433 -4.684,-5.868 -4.379,-5.445 -9.43,-13.08 -2.546,-3.85 -6.523,-10.511 -8.836,-14.802 -2.314,-4.291 -4.443,-7.565 -4.732,-7.276 -0.289,0.289 0.716,2.9 2.234,5.802 1.518,2.902 3.892,7.526 5.277,10.276 2.416,4.796 9.044,15.459 10.257,16.5 0.321,0.275 1.815,2.525 3.32,5 1.505,2.475 4.335,6.525 6.289,9 1.953,2.475 4.525,5.807 5.715,7.405 4.657,6.253 19.854,22.103 32.266,33.651 4.43,4.123 18.072,14.88 24.397,19.239 1.375,0.948 4.525,3.264 7,5.148 2.475,1.883 4.806,3.454 5.179,3.491 0.374,0.036 3.299,1.784 6.5,3.884 22.522,14.773 58.326,30.656 90.344,40.077 29.245,8.605 63.061,14.248 96.734,16.143 29.115,1.638 61.027,-0.607 92.196,-6.486 6.901,-1.302 14.347,-2.622 16.547,-2.934 8.854,-1.256 43.377,-11.834 54.836,-16.802 3.76,-1.63 7.65,-3.121 8.644,-3.312 1.93,-0.372 17.289,-7.468 28.02,-12.945 13.113,-6.694 17.634,-9.227 23.821,-13.348 3.476,-2.316 6.494,-4.211 6.705,-4.211 1.483,0 30.545,-21.993 36.886,-27.914 19.933,-18.611 35.994,-36.897 45.278,-51.551 1.755,-2.769 4.005,-6.121 5,-7.448 4.889,-6.517 15.187,-26.929 19.899,-39.442 1.894,-5.03 3.855,-10.045 4.358,-11.145 4.589,-10.044 11.442,-50.865 11.499,-68.5 0.028,-8.497 -1.795,-26.146 -4.08,-39.5 -1.815,-10.612 -6.351,-28.786 -7.363,-29.5 -0.389,-0.275 -1.52,-2.975 -2.513,-6 -2.521,-7.683 -8.491,-22.367 -9.344,-22.986 -0.39,-0.283 -2.226,-3.664 -4.08,-7.514 -3.019,-6.272 -9.563,-17.199 -11.079,-18.5 -0.321,-0.275 -1.815,-2.525 -3.32,-5 -1.505,-2.475 -4.335,-6.525 -6.289,-9 -1.953,-2.475 -4.525,-5.807 -5.715,-7.405 -4.657,-6.253 -19.854,-22.103 -32.266,-33.651 -4.43,-4.123 -18.072,-14.88 -24.397,-19.239 -1.375,-0.948 -4.525,-3.264 -7,-5.148 -2.475,-1.883 -4.806,-3.454 -5.179,-3.491 -0.374,-0.036 -3.299,-1.784 -6.5,-3.884 C 711.849,49.442 675.923,33.505 643.977,24.105 615.324,15.674 580.857,9.862 548.5,8.004 529.759,6.928 525.795,6.935 505.911,8.077 M 6.392,215.72 c 0.3,0.979 9.129,30.58 19.62,65.78 10.492,35.2 19.541,65.462 20.11,67.25 l 1.033,3.25 h 13.002 13.002 l -0.63,-2.75 C 72.183,347.738 63.008,316.8 52.142,280.5 l -19.758,-66 -13.269,-0.28 c -12.328,-0.259 -13.23,-0.153 -12.723,1.5 m 90.268,-0.97 c -0.252,0.412 -6.79,21.905 -14.528,47.76 l -14.069,47.011 6.095,20.489 c 3.352,11.27 6.4,20.83 6.773,21.245 0.373,0.415 9.811,-29.703 20.973,-66.928 11.163,-37.226 20.524,-68.278 20.803,-69.005 0.404,-1.054 -2.134,-1.322 -12.541,-1.322 -7.176,0 -13.254,0.338 -13.506,0.75 M 245,283 v 69 h 12.5 12.5 v -56.52 -56.521 l 20.75,0.271 20.75,0.27 0.282,12.359 c 0.188,8.259 -0.102,12.821 -0.873,13.75 -0.897,1.081 -4.693,1.391 -17.031,1.391 H 278 v 12.5 12.5 h 7.37 7.371 l 8.488,22.25 c 4.669,12.238 9.79,25.733 11.38,29.989 l 2.891,7.739 13.25,0.011 c 8.686,0.007 13.25,-0.355 13.25,-1.051 0,-0.583 -4.982,-14.1 -11.071,-30.035 -6.09,-15.936 -10.927,-29.373 -10.75,-29.859 0.176,-0.486 2.533,-2.383 5.237,-4.214 3.265,-2.212 5.951,-5.177 8,-8.83 l 3.084,-5.5 V 253 233.5 l -3,-5.421 C 329.888,221.554 323.364,216.491 316.701,215.043 313.906,214.435 297.932,214 278.451,214 H 245 v 69 m -97.48,-65.713 c -2.21,1.251 -4.992,4.023 -6.257,6.233 -2.243,3.919 -2.274,4.417 -2.02,32.56 l 0.257,28.58 2.802,3.671 c 5.267,6.902 6.304,7.131 33.948,7.496 L 201,296.154 V 307.577 319 h 12.5 12.5 l -0.016,-17.75 c -0.016,-16.556 -0.168,-18.018 -2.271,-21.73 -1.264,-2.231 -4.002,-4.969 -6.233,-6.233 -3.83,-2.169 -4.91,-2.255 -28.73,-2.271 L 164,271 V 255.5 240 h 29 29 V 227.5 215 l -35.25,0.016 c -34.715,0.017 -35.31,0.051 -39.23,2.271 M 137,339.555 v 12.554 l 38.325,-0.304 38.325,-0.305 4.155,-2.751 C 223.231,345.157 226,339.679 226,332.54 V 327 H 181.5 137 v 12.555"
     stroke="none"
     fill="#040608"
     fill-rule="evenodd"
     id="path828"
     sodipodi:nodetypes="ccscsscssccsccccccscssccccsssccccscccccccssccscccccccscccscccscccscccccsccscccccccscccccccccccccccccsccscccccccccccscccccccccscccccccccsccccccccccccccsccccccccccccccccscccc" />
</svg>
