<svg xmlns="http://www.w3.org/2000/svg" width="411" height="314" viewBox="0 0 411 314" version="1.1"><path d="M 195 6.131 C 155.159 9.734, 115.028 25.540, 85.112 49.411 C 68.814 62.416, 51.439 83.947, 43.896 100.486 C 42.028 104.581, 40.232 107.947, 39.905 107.966 C 39.577 107.985, 38.094 103.950, 36.608 99 L 33.907 90 20.342 90 L 6.777 90 7.426 93.250 C 7.782 95.037, 16.969 126.200, 27.841 162.500 L 47.609 228.500 51.171 229 C 54.159 229.419, 55.703 230.708, 60.753 237 C 108.231 296.153, 199.328 320.748, 282.750 296.938 C 333.589 282.427, 374.571 249.885, 394.073 208.540 C 399.139 197.801, 403.279 184.665, 404.960 174 C 406.278 165.638, 406.278 145.362, 404.960 137 C 401.906 117.621, 392.065 94.803, 379.676 78.372 C 371.983 68.169, 357.590 53.614, 347.994 46.331 C 307.302 15.450, 252.162 0.962, 195 6.131 M 179.500 18.102 C 167.705 19.335, 148.034 23.664, 136.125 27.649 C 121.373 32.584, 108.483 38.988, 94 48.576 C 71.073 63.755, 56.187 79.956, 43.644 103.379 L 39.960 110.258 57.025 167.316 C 66.411 198.698, 74.182 225.303, 74.295 226.437 C 74.483 228.330, 73.840 228.541, 66.500 229 L 58.500 229.500 67.500 238.863 C 81.434 253.359, 94.628 262.918, 113.963 272.525 C 127.368 279.187, 133.111 281.313, 149 285.499 C 168.431 290.618, 182.670 292.382, 204 292.314 C 259.408 292.138, 306.837 273.312, 339.937 238.356 C 357.105 220.224, 367.110 202.473, 372.014 181.441 C 374.869 169.196, 375.194 166.757, 375.334 156.500 C 375.887 116.193, 354.399 77.177, 317.500 51.490 C 290.040 32.374, 261.024 21.789, 225.789 18.035 C 214.627 16.845, 191.200 16.879, 179.500 18.102 M 245.750 89.582 C 245.338 89.995, 245 121.308, 245 159.167 L 245 228 258 228 L 271 228 271 172 L 271 116 291.500 116 L 312 116 312 129 L 312 142 295 142 L 278 142 278 154.958 L 278 167.916 285.633 168.208 L 293.265 168.500 304.536 198 L 315.806 227.500 330.027 227.778 C 343.253 228.037, 344.212 227.932, 343.740 226.278 C 343.460 225.300, 338.229 211.488, 332.114 195.586 C 325.999 179.683, 321.109 166.618, 321.248 166.552 C 328.088 163.334, 333.061 158.538, 336.233 152.100 C 338.341 147.822, 338.500 146.205, 338.500 129 C 338.500 107.987, 337.713 104.942, 330.386 97.614 C 322.400 89.629, 322.020 89.562, 282 89.175 C 262.475 88.986, 246.162 89.169, 245.750 89.582 M 94.096 99.750 C 84.526 130.961, 69 184.001, 69 185.483 C 69 187.425, 79.388 223.102, 81.082 226.978 C 81.947 228.957, 82.328 229.159, 82.974 227.978 C 84.006 226.092, 124 92.718, 124 91.162 C 124 90.337, 120.097 90, 110.543 90 L 97.086 90 94.096 99.750 M 150.500 91.400 C 146.546 93.143, 142.051 97.717, 140.360 101.718 C 139.330 104.156, 139 111.292, 139 131.152 C 139 155.912, 139.119 157.615, 141.144 161.798 C 142.569 164.742, 144.814 167.195, 147.840 169.113 L 152.392 172 177.196 172 L 202 172 202 184 L 202 196 215.061 196 L 228.121 196 227.811 177.173 C 227.514 159.174, 227.394 158.191, 225.090 154.833 C 223.765 152.901, 221.099 150.235, 219.166 148.910 C 215.713 146.542, 215.214 146.495, 190.326 146.202 L 165 145.904 165 130.952 L 165 116 194.500 116 L 224 116 224 103 L 224 90 188.750 90.039 C 161.773 90.069, 152.796 90.389, 150.500 91.400 M 137 215 L 137 228 175.184 228 C 211.545 228, 213.569 227.903, 217.573 225.965 C 224.012 222.847, 227.363 217.268, 227.837 208.872 L 228.226 202 182.613 202 L 137 202 137 215" stroke="none" fill="#040404" fill-rule="evenodd"/></svg>