<svg xmlns="http://www.w3.org/2000/svg" width="869" height="547" viewBox="0 0 869 547" version="1.1"><path d="M 366 288.500 L 366 406 374 406 L 382 406 382 288.500 L 382 171 374 171 L 366 171 366 288.500" stroke="none" fill="#003366" fill-rule="evenodd"/><path d="M 417.646 170.134 C 412.287 171.355, 408.478 174.330, 405.254 179.815 C 402.770 184.041, 402.500 185.431, 402.503 194 C 402.506 205.038, 404.444 209.951, 410.666 214.692 C 413.959 217.201, 415.162 217.500, 421.970 217.500 C 432.961 217.500, 438.770 213.325, 434.174 208.730 C 432.155 206.710, 431.992 206.697, 430.113 208.398 C 427.229 211.007, 420.978 211.557, 417.084 209.544 C 408.117 204.906, 407.683 184.185, 416.434 178.451 C 419.351 176.540, 426.822 176.299, 430.025 178.013 C 431.802 178.965, 432.228 178.690, 433.449 175.800 C 434.754 172.710, 434.704 172.429, 432.671 171.389 C 429.473 169.751, 422.050 169.132, 417.646 170.134 M 586.011 171.487 C 584.458 173.358, 585.445 177.573, 587.632 178.412 C 589.431 179.103, 594 176.590, 594 174.911 C 594 170.669, 588.608 168.358, 586.011 171.487 M 606.250 174.352 C 603.307 175.201, 603 175.654, 603 179.145 C 603 182.333, 602.654 183, 601 183 C 599.514 183, 599 183.667, 599 185.594 C 599 187.346, 599.649 188.357, 601 188.710 C 602.837 189.191, 603 190.074, 603 199.570 C 603 205.255, 603.503 211.010, 604.118 212.359 C 605.860 216.183, 610.870 218.388, 616.400 217.764 C 622.055 217.127, 622.276 216.946, 621.443 213.629 C 620.868 211.336, 620.317 211.041, 616.860 211.177 C 614.699 211.261, 612.384 210.785, 611.715 210.117 C 610.978 209.381, 610.365 204.992, 610.156 198.952 L 609.813 189 614.406 189 C 618.844 189, 619 188.898, 619 186 C 619 183.116, 618.828 183, 614.552 183 L 610.105 183 609.802 178.207 L 609.500 173.415 606.250 174.352 M 754.250 174.529 C 751.452 175.712, 751 176.397, 751 179.452 C 751 182.333, 750.624 183, 749 183 C 747.514 183, 747 183.667, 747 185.594 C 747 187.346, 747.649 188.357, 749 188.710 C 750.821 189.187, 751 190.074, 751 198.649 C 751 213.779, 754.356 218.701, 764.038 217.770 C 770.023 217.195, 770.436 216.872, 769.572 213.431 C 768.992 211.122, 768.522 210.846, 766.016 211.347 C 764.056 211.739, 762.424 211.354, 760.934 210.148 C 759.029 208.605, 758.675 207.106, 758.237 198.746 L 757.734 189.120 762.617 188.810 C 767.083 188.526, 767.527 188.270, 767.811 185.807 C 768.106 183.249, 767.882 183.099, 763.311 182.807 L 758.500 182.500 758 177.827 L 757.500 173.155 754.250 174.529 M 448.015 183.695 C 437.990 188.888, 436.941 208.387, 446.310 215.382 C 450.090 218.204, 458.545 218.637, 463 216.238 C 472.915 210.896, 473.950 191.531, 464.690 184.618 C 460.981 181.849, 452.486 181.379, 448.015 183.695 M 485.546 183.621 C 483.507 184.764, 482.475 184.925, 482.213 184.139 C 482.004 183.512, 480.521 183, 478.917 183 L 476 183 476 200 L 476 217 480 217 L 484 217 484 204.122 C 484 189.872, 484.483 188.667, 490.195 188.667 C 495.224 188.667, 496 190.809, 496 204.691 L 496 217 499.471 217 L 502.942 217 503.221 203.762 L 503.500 190.524 506.231 189.216 C 509.050 187.867, 512.505 188.809, 514.235 191.400 C 514.639 192.005, 514.976 198.012, 514.985 204.750 L 515 217 518.500 217 L 522 217 522 203.547 C 522 188.560, 521.308 186.019, 516.525 183.443 C 512.738 181.404, 505.658 181.913, 503.169 184.403 C 501.760 185.811, 501.442 185.805, 499.816 184.334 C 497.223 181.987, 489.178 181.585, 485.546 183.621 M 538.546 183.621 C 536.507 184.764, 535.475 184.925, 535.213 184.139 C 535.004 183.512, 533.521 183, 531.917 183 L 529 183 529 200 L 529 217 533 217 L 537 217 537 204.122 C 537 189.872, 537.483 188.667, 543.195 188.667 C 548.224 188.667, 549 190.809, 549 204.691 L 549 217 552.471 217 L 555.942 217 556.221 203.762 L 556.500 190.524 559.231 189.216 C 562.050 187.867, 565.505 188.809, 567.235 191.400 C 567.639 192.005, 567.976 198.012, 567.985 204.750 L 568 217 571.500 217 L 575 217 575 203.547 C 575 188.560, 574.308 186.019, 569.525 183.443 C 565.738 181.404, 558.658 181.913, 556.169 184.403 C 554.760 185.811, 554.442 185.805, 552.816 184.334 C 550.223 181.987, 542.178 181.585, 538.546 183.621 M 635.520 183.566 C 633.597 184.569, 632.415 184.744, 632.187 184.060 C 631.992 183.477, 630.521 183, 628.917 183 L 626 183 626 200 L 626 217 629.500 217 L 633 217 633 204.655 C 633 194.137, 633.259 192.088, 634.750 190.807 C 637.705 188.269, 640.145 187.865, 642.641 189.500 C 644.919 190.993, 645 191.491, 645 204.023 L 645 217 649 217 L 653 217 653 204.122 C 653 190.715, 653.230 189.939, 657.611 188.599 C 658.976 188.182, 660.565 188.636, 662.111 189.886 C 664.364 191.708, 664.519 192.538, 664.832 204.409 L 665.163 217 668.655 217 L 672.148 217 671.824 202.520 C 671.509 188.463, 671.424 187.964, 668.903 185.445 C 665.555 182.102, 659.715 181.257, 654.632 183.380 C 651.253 184.792, 650.521 184.804, 647.968 183.483 C 644.269 181.570, 639.284 181.604, 635.520 183.566 M 685.848 184.018 C 677.939 188.196, 674.686 200.352, 679.177 208.941 C 680.455 211.384, 682.704 214.260, 684.176 215.331 C 687.978 218.100, 695.981 218.661, 701.518 216.546 C 706.266 214.733, 706.861 213.560, 704.601 210.468 C 703.381 208.801, 702.892 208.720, 700.802 209.838 C 695.450 212.702, 688.225 210.983, 686.110 206.343 C 683.745 201.152, 684.055 201, 697 201 L 709 201 709 196.368 C 709 190.239, 706.120 185.665, 700.961 183.601 C 695.694 181.493, 690.347 181.641, 685.848 184.018 M 723.546 183.679 C 721.489 184.792, 720.477 184.932, 720.213 184.139 C 720.004 183.512, 718.521 183, 716.917 183 L 714 183 714 200 L 714 217 717.500 217 L 721 217 721 204.655 C 721 193.554, 721.203 192.126, 723.013 190.488 C 725.545 188.197, 730.564 188.136, 732.798 190.369 C 734.175 191.745, 734.567 194.453, 734.853 204.535 L 735.206 217 738.603 217 L 742 217 741.998 204.250 C 741.997 190.174, 740.696 185.625, 736 183.279 C 732.590 181.575, 727.109 181.751, 723.546 183.679 M 581 186 C 581 188.333, 581.444 189, 583 189 C 584.905 189, 585 189.667, 585 203 L 585 217 589 217 L 593 217 593 200 L 593 183 587 183 L 581 183 581 186 M 451.377 189.416 C 447.470 192.213, 446.276 202.580, 449.202 208.298 C 451.627 213.038, 459.851 212.303, 461.881 207.164 C 463.984 201.844, 463.677 194.037, 461.250 191.114 C 458.915 188.302, 454.092 187.472, 451.377 189.416 M 690.329 189.466 C 687.600 190.646, 685 193.558, 685 195.434 C 685 195.745, 688.825 196, 693.500 196 C 698.175 196, 702 195.575, 702 195.056 C 702 193.504, 697.650 189.202, 695.500 188.628 C 694.400 188.335, 692.073 188.712, 690.329 189.466 M 406 279.440 L 406 303 410.018 303 L 414.037 303 413.768 279.750 L 413.500 256.500 409.750 256.190 L 406 255.879 406 279.440 M 552.765 258.617 C 551.719 260.912, 551.844 261.456, 553.782 263.025 C 556.579 265.290, 559.836 264.500, 560.623 261.368 C 561.935 256.140, 554.999 253.713, 552.765 258.617 M 462.240 260.541 C 459.451 261.714, 459 262.398, 459 265.452 C 459 267.939, 458.552 269, 457.500 269 C 456.500 269, 456 270, 456 272 C 456 274, 456.500 275, 457.500 275 C 458.719 275, 459.001 276.641, 459.006 283.750 C 459.015 298.251, 461.203 302.681, 468.862 303.708 C 475.327 304.575, 478 303.487, 478 299.988 C 478 297.165, 477.799 297.022, 474.048 297.169 C 467.706 297.418, 467 296.192, 467 284.935 L 467 275.115 471.250 274.807 C 475.053 274.532, 475.533 274.211, 475.816 271.750 C 476.121 269.105, 475.958 269, 471.566 269 L 467 269 467 264.559 C 467 262.116, 466.658 259.907, 466.240 259.648 C 465.822 259.390, 464.022 259.792, 462.240 260.541 M 573.250 260.529 C 570.452 261.712, 570 262.397, 570 265.452 C 570 268.333, 569.624 269, 568 269 C 566.514 269, 566 269.667, 566 271.594 C 566 273.346, 566.649 274.357, 568 274.710 C 569.821 275.187, 570 276.074, 570 284.649 C 570 299.779, 573.356 304.701, 583.038 303.770 C 589.023 303.195, 589.436 302.872, 588.572 299.431 C 587.992 297.122, 587.522 296.846, 585.016 297.347 C 583.056 297.739, 581.424 297.354, 579.934 296.148 C 578.029 294.605, 577.675 293.106, 577.237 284.746 L 576.734 275.120 581.617 274.810 C 586.083 274.526, 586.527 274.270, 586.811 271.807 C 587.106 269.249, 586.882 269.099, 582.311 268.807 L 577.500 268.500 577 263.827 L 576.500 259.155 573.250 260.529 M 537.993 268.013 C 537.093 269.694, 536.570 269.840, 534.812 268.899 C 533.638 268.271, 530.480 267.988, 527.666 268.258 C 523.462 268.662, 522.073 269.343, 519.312 272.357 C 516.498 275.428, 516 276.713, 516 280.909 C 516 284.786, 516.567 286.520, 518.638 288.982 L 521.277 292.118 519.138 293.616 C 516.497 295.466, 516.376 299.125, 518.882 301.393 C 520.370 302.740, 522.371 303.045, 528.451 302.851 C 536.351 302.599, 538.496 303.544, 537.271 306.736 C 535.948 310.183, 529.130 310.871, 523.705 308.105 L 519.987 306.209 517.958 309.058 L 515.930 311.908 518.335 313.484 C 523.674 316.982, 535.358 316.961, 540.727 313.443 C 546.276 309.808, 546.259 301.400, 540.696 297.887 C 538.006 296.188, 536.432 295.959, 530.750 296.441 C 523.081 297.092, 521.515 295.593, 528.750 294.527 C 535.642 293.511, 539.625 291.309, 541.423 287.522 C 543.203 283.770, 543.488 277.781, 542.018 275.034 C 541.289 273.672, 541.418 273.054, 542.518 272.631 C 544.758 271.772, 544.298 269.425, 541.535 267.615 C 539.215 266.095, 539.007 266.118, 537.993 268.013 M 432.500 269.195 C 431.400 269.819, 430.187 270.805, 429.804 271.387 C 429.370 272.045, 428.859 271.795, 428.447 270.722 C 428.032 269.642, 426.708 269, 424.893 269 L 422 269 422 286 L 422 303 426 303 L 430 303 430 290.026 L 430 277.051 432.944 275.529 C 436.400 273.742, 440.263 274.754, 441.939 277.886 C 442.523 278.977, 443 285.073, 443 291.434 L 443 303 446.574 303 L 450.148 303 449.824 288.415 L 449.500 273.831 446.234 270.915 C 443.697 268.650, 442.024 268.007, 438.734 268.030 C 436.405 268.047, 433.600 268.571, 432.500 269.195 M 490.500 269.412 C 484.001 272.300, 481 277.830, 481 286.917 C 481 293.293, 483.176 297.596, 488.327 301.408 C 492.073 304.180, 503.250 304.376, 507.273 301.741 C 509.675 300.167, 509.831 299.722, 508.784 297.426 C 508.048 295.810, 507.043 295.046, 506.059 295.352 C 505.202 295.620, 503.150 296.251, 501.500 296.755 C 495.548 298.574, 490.438 295.626, 488.547 289.281 C 487.891 287.084, 488.004 287.060, 500.193 286.781 L 512.500 286.500 512.436 281.738 C 512.362 276.134, 509.976 272.325, 504.929 269.752 C 500.885 267.690, 494.702 267.544, 490.500 269.412 M 548 272 C 548 274.533, 548.389 275, 550.500 275 L 553 275 553 289 L 553 303 556.500 303 L 560 303 560 286 L 560 269 554 269 L 548 269 548 272 M 590 269.953 C 590 270.477, 592.700 277.887, 596 286.419 C 599.300 294.950, 602 302.777, 602 303.811 C 602 306.182, 599.313 308.641, 595.750 309.530 C 593.542 310.081, 593 310.787, 593 313.108 C 593 315.555, 593.400 316, 595.599 316 C 599.160 316, 604.594 313.281, 606.262 310.664 C 607.021 309.474, 609.801 302.425, 612.439 295 C 615.078 287.575, 618.288 278.688, 619.574 275.250 L 621.910 269 618.065 269 L 614.221 269 610.439 280.047 C 607.079 289.864, 605 294.091, 605 291.107 C 605 290.550, 603.167 285.349, 600.926 279.548 L 596.852 269 593.426 269 C 591.542 269, 590 269.429, 590 269.953 M 495 274.707 C 492.664 275.560, 489 279.205, 489 280.674 C 489 281.665, 491.023 282, 497 282 C 503.444 282, 505 281.708, 505 280.500 C 505 278.858, 501.550 275, 500.082 275 C 499.577 275, 498.564 274.811, 497.832 274.579 C 497.099 274.348, 495.825 274.405, 495 274.707 M 525.944 275.844 C 521.547 279.405, 524.120 288, 529.584 288 C 532.967 288, 535 285.368, 535 280.985 C 535 278.118, 534.423 276.710, 532.777 275.557 C 529.906 273.545, 528.722 273.595, 525.944 275.844 M 403 372.500 L 403 396 407 396 L 411 396 411 386.500 L 411 377 413.772 377 C 416.195 377, 417.286 378.198, 422.422 386.500 L 428.299 396 432.685 396 C 437.814 396, 437.996 396.714, 429.506 383.553 L 424.205 375.336 427.557 372.662 C 431.326 369.655, 433.227 364.423, 432.291 359.633 C 430.702 351.499, 426.074 349, 412.599 349 L 403 349 403 372.500 M 605.240 353.541 C 602.451 354.714, 602 355.398, 602 358.452 C 602 360.939, 601.552 362, 600.500 362 C 599.500 362, 599 363, 599 365 C 599 367, 599.500 368, 600.500 368 C 601.719 368, 602.001 369.641, 602.006 376.750 C 602.015 391.251, 604.203 395.681, 611.862 396.708 C 618.327 397.575, 621 396.487, 621 392.988 C 621 390.165, 620.799 390.022, 617.048 390.169 C 610.706 390.418, 610 389.192, 610 377.935 L 610 368.115 614.250 367.807 C 618.053 367.532, 618.533 367.211, 618.816 364.750 C 619.121 362.105, 618.958 362, 614.566 362 L 610 362 610 357.559 C 610 355.116, 609.658 352.907, 609.240 352.648 C 608.822 352.390, 607.022 352.792, 605.240 353.541 M 411 363 L 411 370.254 416.075 369.767 C 422.030 369.195, 424.091 367.505, 424.216 363.091 C 424.341 358.711, 422.084 356.811, 416.075 356.233 L 411 355.746 411 363 M 443.848 363.018 C 435.939 367.196, 432.686 379.352, 437.177 387.941 C 438.455 390.384, 440.704 393.260, 442.176 394.331 C 445.978 397.100, 453.981 397.661, 459.518 395.546 C 464.266 393.733, 464.861 392.560, 462.601 389.468 C 461.381 387.801, 460.892 387.720, 458.802 388.838 C 453.450 391.702, 446.225 389.983, 444.110 385.343 C 441.745 380.152, 442.055 380, 455 380 L 467 380 467 375.368 C 467 369.239, 464.120 364.665, 458.961 362.601 C 453.694 360.493, 448.347 360.641, 443.848 363.018 M 474.304 362.956 C 467.480 367.117, 469.295 376.089, 477.836 380.417 C 483.359 383.216, 485.303 385.208, 484.833 387.589 C 484.274 390.419, 480.713 390.999, 476.226 388.990 L 472.140 387.160 471.070 390.229 C 469.566 394.544, 469.571 394.555, 473.866 395.842 C 484.787 399.114, 493 394.968, 493 386.185 C 493 382.468, 490.218 378.938, 485.339 376.464 C 477.842 372.662, 476.181 370.044, 479.977 368.012 C 481.448 367.225, 482.902 367.350, 485.654 368.500 C 489.721 370.199, 490.955 369.470, 490.985 365.348 C 491.015 361.078, 479.980 359.495, 474.304 362.956 M 508.157 361.882 C 507.418 362.350, 504.822 362.509, 502.388 362.235 L 497.963 361.736 498.232 385.618 L 498.500 409.500 501.500 409.500 L 504.500 409.500 504.791 402.400 L 505.082 395.300 508.831 396.300 C 516.663 398.391, 524.720 394.407, 527.072 387.281 C 528.869 381.836, 528.456 372.465, 526.252 368.691 C 523.552 364.069, 518.490 360.997, 513.602 361.015 C 511.346 361.024, 508.896 361.414, 508.157 361.882 M 541.500 362.412 C 535.001 365.300, 532 370.830, 532 379.917 C 532 386.293, 534.176 390.596, 539.327 394.408 C 543.073 397.180, 554.250 397.376, 558.273 394.741 C 560.675 393.167, 560.831 392.722, 559.784 390.426 C 559.048 388.810, 558.043 388.046, 557.059 388.352 C 556.202 388.620, 554.150 389.251, 552.500 389.755 C 546.548 391.574, 541.438 388.626, 539.547 382.281 C 538.891 380.084, 539.004 380.060, 551.193 379.781 L 563.500 379.500 563.436 374.738 C 563.362 369.134, 560.976 365.325, 555.929 362.752 C 551.885 360.690, 545.702 360.544, 541.500 362.412 M 577.001 362.123 C 570.417 364.749, 566.659 371.079, 566.639 379.579 C 566.608 392.924, 576.780 399.775, 590.492 395.643 C 594.898 394.316, 595.817 392.486, 593.590 389.481 C 592.290 387.727, 591.866 387.656, 589.889 388.866 C 588.662 389.617, 585.822 390.206, 583.579 390.175 C 577.076 390.086, 573.015 384.066, 574.416 376.595 C 575.832 369.048, 581.714 365.600, 588.405 368.396 C 591.897 369.855, 592.068 369.825, 593.594 367.496 C 595.581 364.465, 594.883 363.339, 590.214 362.043 C 585.636 360.771, 580.310 360.804, 577.001 362.123 M 448.329 368.466 C 445.600 369.646, 443 372.558, 443 374.434 C 443 374.745, 446.825 375, 451.500 375 C 456.175 375, 460 374.575, 460 374.056 C 460 372.504, 455.650 368.202, 453.500 367.628 C 452.400 367.335, 450.073 367.712, 448.329 368.466 M 508 368.299 C 505.627 369.490, 505.486 370.043, 505.215 379.198 C 504.940 388.477, 505.016 388.871, 507.215 389.593 C 516.259 392.560, 523.188 384.246, 520.142 374.079 C 518.586 368.885, 512.553 366.013, 508 368.299 M 546 367.707 C 543.664 368.560, 540 372.205, 540 373.674 C 540 374.665, 542.023 375, 548 375 C 554.444 375, 556 374.708, 556 373.500 C 556 371.858, 552.550 368, 551.082 368 C 550.577 368, 549.564 367.811, 548.832 367.579 C 548.099 367.348, 546.825 367.405, 546 367.707" stroke="none" fill="#e4042c" fill-rule="evenodd"/><path d="M 503 7.262 C 502.725 7.528, 497.775 8.033, 492 8.383 C 458.425 10.422, 423.020 18.431, 381.500 33.379 C 372.063 36.776, 351.019 46.614, 337 54.181 C 326.503 59.848, 304.696 74.026, 297 80.187 C 278.706 94.834, 273 99.945, 260.924 112.500 C 252.651 121.102, 250.902 123.183, 241.169 136 C 226.130 155.803, 214.989 175.408, 207.520 195.205 C 200.887 212.790, 204.170 208.886, 211.478 190.500 C 213.445 185.550, 215.865 180.375, 216.855 179 C 217.846 177.625, 220.314 173.350, 222.339 169.500 C 224.365 165.650, 226.928 161.375, 228.034 160 C 229.140 158.625, 232.129 154.350, 234.674 150.500 C 237.220 146.650, 239.835 143.050, 240.486 142.500 C 241.137 141.950, 243.378 139.357, 245.465 136.738 C 250.787 130.061, 268.245 112.420, 276 105.883 C 287.518 96.175, 303.327 84.770, 313.500 78.830 C 320.901 74.508, 322.448 73.555, 323 72.975 C 323.931 71.997, 352.447 58.280, 361 54.694 C 365.675 52.735, 372.425 50.179, 376 49.014 C 379.575 47.850, 384.525 46.198, 387 45.344 C 394.451 42.771, 415.120 37.037, 418.417 36.627 C 420.113 36.416, 427.575 35.073, 435 33.642 C 481.086 24.759, 532.406 25.260, 576 35.019 C 580.675 36.065, 586.107 37.149, 588.071 37.427 C 593.408 38.182, 601.393 40.380, 613.402 44.398 C 619.322 46.379, 624.631 48, 625.200 48 C 625.768 48, 631.244 50.122, 637.367 52.715 C 643.490 55.308, 648.981 57.506, 649.568 57.599 C 650.578 57.760, 671.639 68.156, 677 71.139 C 684.765 75.461, 695.160 81.903, 699.707 85.211 C 702.571 87.295, 705.300 89, 705.770 89 C 706.241 89, 707.919 90.350, 709.500 92 C 711.081 93.650, 712.798 95, 713.315 95 C 716.166 95, 748.627 125.351, 756.845 135.702 C 758.680 138.013, 760.928 140.787, 761.841 141.867 C 766.144 146.962, 766.917 147.976, 767.916 149.843 C 768.505 150.944, 769.552 152.442, 770.243 153.172 C 775.481 158.707, 793 190.859, 793 194.936 C 793 195.521, 793.342 196, 793.759 196 C 795.217 196, 804 224.257, 804 228.946 C 804 230.076, 804.436 231, 804.969 231 C 805.501 231, 805.676 231.681, 805.357 232.513 C 805.037 233.345, 805.223 234.582, 805.770 235.263 C 807.725 237.698, 809.420 254.807, 809.460 272.500 C 809.499 290.098, 807.593 311, 805.950 311 C 805.496 311, 805.160 311.787, 805.203 312.750 C 805.400 317.105, 795.316 351, 793.824 351 C 793.371 351, 793 351.457, 793 352.016 C 793 353.358, 784.155 372.262, 783.201 372.959 C 782.794 373.257, 780.366 377.144, 777.805 381.598 C 769.220 396.532, 748.777 421.587, 737.500 430.997 C 735.850 432.374, 734.354 433.825, 734.176 434.221 C 733.225 436.341, 707.932 456.120, 702.092 459.311 C 700.217 460.335, 698.044 461.813, 697.262 462.595 C 694.006 465.851, 666.980 481, 664.427 481 C 663.642 481, 663 481.360, 663 481.799 C 663 482.239, 661.313 483.202, 659.250 483.940 C 657.188 484.678, 655.275 485.584, 655 485.952 C 653.932 487.385, 617.854 501.210, 614.500 501.473 C 613.950 501.516, 609.675 502.729, 605 504.169 C 593.321 507.766, 580.755 510.822, 573 511.953 C 569.425 512.474, 560.425 513.812, 553 514.928 C 516.908 520.348, 484.256 520.218, 446.500 514.503 C 437.700 513.171, 428.689 511.832, 426.475 511.526 C 424.261 511.220, 416.611 509.357, 409.475 507.385 C 402.339 505.412, 393.274 502.943, 389.330 501.897 C 385.387 500.852, 377.737 498.168, 372.330 495.934 C 366.924 493.700, 361.825 491.716, 361 491.526 C 356.702 490.533, 333.015 479.091, 324.268 473.782 C 320.841 471.702, 317.733 470, 317.362 470 C 316.992 470, 315.214 468.875, 313.411 467.500 C 311.608 466.125, 309.938 465, 309.699 465 C 308.871 465, 295.488 455.813, 293 453.537 C 291.625 452.279, 289.951 451.081, 289.280 450.875 C 285.257 449.639, 253.856 420.042, 246.500 410.553 C 244.850 408.424, 242.600 405.665, 241.500 404.421 C 237.602 400.014, 236.434 398.455, 234.071 394.500 C 232.757 392.300, 230.684 389.375, 229.466 388 C 227.255 385.506, 218.522 370.321, 214.646 362.233 C 212.615 357.994, 210.216 356.975, 210.811 360.604 C 211.264 363.374, 222.265 385.433, 226.967 393 C 241.752 416.796, 264.813 442.888, 286.528 460.391 C 290.363 463.482, 295.075 467.283, 297 468.837 C 302.175 473.017, 320.230 484.956, 330.351 490.892 C 370.636 514.519, 422.148 531.905, 472.704 538.940 C 498.153 542.481, 553.387 542.507, 584.121 538.993 C 607.713 536.296, 643.492 527.145, 675.500 515.621 C 684.937 512.224, 705.981 502.386, 720 494.819 C 730.497 489.152, 752.304 474.974, 760 468.813 C 778.294 454.166, 784 449.055, 796.076 436.500 C 807.396 424.730, 821.182 406.936, 830.165 392.500 C 847.641 364.415, 859.438 331.316, 862.956 300.500 C 864.281 288.899, 864.292 259.868, 862.977 248.974 C 859.246 218.075, 846.877 183.175, 830.025 156 C 815.319 132.284, 792.197 106.120, 770.472 88.609 C 766.637 85.518, 761.925 81.717, 760 80.163 C 749.726 71.865, 724.582 56.321, 707.863 47.931 C 669.712 28.786, 615.641 12.709, 578.500 9.467 C 574.650 9.131, 570.150 8.629, 568.500 8.353 C 564.416 7.668, 503.627 6.656, 503 7.262 M 244 282.433 L 244 352 257 352 L 270 352 270 296 L 270 240 290.500 240 L 311 240 311 253 L 311 266 294 266 L 277 266 277 279 L 277 292 284.422 292 L 291.845 292 295.406 301.250 C 297.365 306.337, 302.494 319.725, 306.803 331 L 314.638 351.500 328.819 351.777 C 337.431 351.946, 343 351.677, 343 351.092 C 343 350.563, 338.050 337.246, 332 321.500 C 325.950 305.754, 321.014 292.337, 321.032 291.685 C 321.049 291.033, 323.072 289.281, 325.528 287.791 C 331.038 284.447, 335.529 277.588, 337.071 270.159 C 337.780 266.743, 338.074 258.696, 337.826 249.474 C 337.449 235.455, 337.224 233.978, 334.659 228.736 C 331.579 222.441, 327.697 218.705, 321 215.592 C 316.740 213.612, 314.565 213.483, 280.250 213.183 L 244 212.866 244 282.433 M 5.038 214.223 C 5.059 214.375, 14.397 245.550, 25.788 283.500 L 46.500 352.500 60.250 352.778 C 70.905 352.994, 73.992 352.769, 73.964 351.778 C 73.945 351.075, 64.775 319.900, 53.588 282.500 L 33.247 214.500 19.123 214.223 C 11.355 214.070, 5.017 214.070, 5.038 214.223 M 95.480 215.250 C 93.233 221.390, 67.806 307.974, 67.802 309.500 C 67.796 311.551, 79.694 352.027, 80.555 352.889 C 80.818 353.152, 81.418 352.947, 81.888 352.433 C 82.510 351.753, 113.973 248.074, 123.062 216.750 L 123.860 214 109.899 214 C 99.640 214, 95.816 214.332, 95.480 215.250 M 148.500 215.881 C 143.742 218.066, 141.610 220.296, 139.538 225.254 C 138.284 228.256, 138.004 233.792, 138.022 255.218 C 138.047 284.972, 138.502 287.228, 145.561 292.616 L 149.340 295.500 174.670 295.798 L 200 296.096 200 308.048 L 200 320 213.500 320 L 227 320 226.978 302.250 C 226.959 287.175, 226.679 283.897, 225.119 280.500 C 220.709 270.896, 217.543 270, 188.005 270 L 163.947 270 164.223 255.250 L 164.500 240.500 193.750 240.235 L 223 239.970 223 226.985 L 223 214 187.750 214.022 C 155.691 214.042, 152.138 214.210, 148.500 215.881 M 136 339.033 L 136 352.066 175.829 351.783 L 215.658 351.500 219.438 348.616 C 224.351 344.867, 226.950 339.054, 226.978 331.750 L 227 326 181.500 326 L 136 326 136 339.033" stroke="none" fill="#fbfbfb" fill-rule="evenodd"/></svg>