<svg xmlns="http://www.w3.org/2000/svg" width="415" height="415" viewBox="0 0 415 415" version="1.1"><path d="M 200.500 58.675 C 178.709 61.397, 160.345 65.341, 148.500 69.843 C 145.750 70.888, 140.954 72.717, 137.843 73.908 C 131.013 76.523, 113.122 85.612, 110.921 87.585 C 110.053 88.363, 109.038 89, 108.667 89 C 107.742 89, 95.616 97.443, 89.500 102.346 C 77.867 111.671, 65.754 124.934, 57.026 137.904 C 51.928 145.479, 43 162.764, 43 165.058 C 43 170.251, 41.085 166.194, 36.964 152.268 L 32.297 136.500 18.148 136.223 C 10.367 136.070, 4.017 136.070, 4.038 136.223 C 4.059 136.375, 13.397 167.550, 24.788 205.500 L 45.500 274.500 50 274.818 C 54.394 275.128, 54.623 275.318, 59.738 282.908 C 66.081 292.320, 78.424 305.689, 87.682 313.174 C 95.130 319.197, 107.591 328, 108.667 328 C 109.038 328, 110.053 328.610, 110.921 329.356 C 114.834 332.717, 133.948 341.890, 146.974 346.658 C 156.227 350.044, 174.774 354.706, 186.500 356.593 C 202.093 359.101, 235.528 359.585, 252.325 357.545 C 266.649 355.806, 289.425 350.646, 299 346.972 C 302.025 345.811, 306.273 344.208, 308.440 343.408 C 314.349 341.228, 329.523 333.425, 338 328.206 C 364.760 311.732, 385.686 289.649, 398.124 264.754 C 407.689 245.610, 411 231.146, 411 208.500 C 411 185.262, 407.651 171.089, 397.411 151 C 384.707 126.075, 362.729 103.195, 336.952 88.060 C 300.881 66.880, 266.521 57.866, 223 58.165 C 212.275 58.239, 202.150 58.468, 200.500 58.675 M 187 70.958 C 153.370 75.133, 125.007 84.938, 100.744 100.777 C 76.909 116.337, 60.683 134.293, 48.524 158.567 L 42.444 170.705 57.689 221.603 C 66.074 249.596, 72.949 273.063, 72.967 273.750 C 72.990 274.635, 70.939 275, 65.938 275 L 58.876 275 62.188 279.670 C 64.010 282.238, 70.030 288.893, 75.567 294.458 C 100.468 319.486, 140.363 338.410, 178 343.046 C 182.675 343.621, 187.850 344.337, 189.500 344.636 C 191.150 344.934, 199.250 345.199, 207.500 345.225 C 292.889 345.485, 365.664 295.481, 378.105 228 C 379.619 219.786, 379.600 196.691, 378.072 187.500 C 375.395 171.403, 366.697 152.046, 355.156 136.500 C 331.373 104.464, 290.881 81.447, 243.415 72.982 C 230.270 70.638, 198.701 69.506, 187 70.958 M 243 204.433 L 243 274 256 274 L 269 274 269 218 L 269 162 289.500 162 L 310 162 310 175 L 310 188 293 188 L 276 188 276 201 L 276 214 283.422 214 L 290.845 214 294.406 223.250 C 296.365 228.338, 301.494 241.725, 305.803 253 L 313.638 273.500 327.819 273.777 C 336.431 273.946, 342 273.677, 342 273.092 C 342 272.563, 337.050 259.246, 331 243.500 C 324.950 227.754, 320.014 214.337, 320.032 213.685 C 320.049 213.033, 322.072 211.281, 324.528 209.791 C 330.038 206.447, 334.529 199.588, 336.071 192.159 C 336.780 188.743, 337.074 180.696, 336.826 171.474 C 336.449 157.455, 336.224 155.978, 333.659 150.736 C 330.579 144.441, 326.697 140.705, 320 137.592 C 315.740 135.612, 313.565 135.483, 279.250 135.183 L 243 134.866 243 204.433 M 94.480 137.250 C 92.233 143.390, 66.806 229.974, 66.802 231.500 C 66.796 233.551, 78.694 274.027, 79.555 274.889 C 79.818 275.152, 80.418 274.947, 80.888 274.433 C 81.510 273.753, 112.973 170.074, 122.062 138.750 L 122.860 136 108.899 136 C 98.640 136, 94.816 136.332, 94.480 137.250 M 147.500 137.881 C 142.742 140.066, 140.610 142.296, 138.538 147.254 C 137.284 150.256, 137.004 155.792, 137.022 177.218 C 137.047 206.972, 137.502 209.228, 144.561 214.616 L 148.340 217.500 173.670 217.798 L 199 218.096 199 230.048 L 199 242 212.500 242 L 226 242 225.978 224.250 C 225.959 209.175, 225.679 205.897, 224.119 202.500 C 219.709 192.896, 216.543 192, 187.005 192 L 162.947 192 163.223 177.250 L 163.500 162.500 192.750 162.235 L 222 161.970 222 148.985 L 222 136 186.750 136.022 C 154.691 136.042, 151.138 136.210, 147.500 137.881 M 135 261.033 L 135 274.066 174.829 273.783 L 214.658 273.500 218.438 270.616 C 223.351 266.867, 225.950 261.054, 225.978 253.750 L 226 248 180.500 248 L 135 248 135 261.033" stroke="none" fill="#fbfbfb" fill-rule="evenodd"/></svg>